<?xml version="1.0" encoding="UTF-8"?>
<svg width="477px" height="477px" viewBox="0 0 477 477" version="1.1" xmlns="http://www.w3.org/2000/svg" xmlns:xlink="http://www.w3.org/1999/xlink">
    <title>Constellation Design square logo reversed@1x</title>
    <g id="Constellation-Design-square-logo-reversed" stroke="none" stroke-width="1" fill="none" fill-rule="evenodd">
        <path d="M324.586207,359.758621 C356.96152,359.758621 383.206897,386.003997 383.206897,418.37931 C383.206897,450.754623 356.96152,477 324.586207,477 C292.210894,477 265.965517,450.754623 265.965517,418.37931 C265.965517,386.003997 292.210894,359.758621 324.586207,359.758621 Z M372.320197,137 C430.133256,137 477,183.866744 477,241.679803 C477,299.492862 430.133256,346.359606 372.320197,346.359606 C314.507138,346.359606 267.640394,299.492862 267.640394,241.679803 C267.640394,183.866744 314.507138,137 372.320197,137 Z" id="G-star" fill="#FFFFFF"></path>
        <circle id="O-star" fill="#FFFFFF" cx="137" cy="137" r="137"></circle>
        <g id="Group" transform="translate(38.000000, 50.000000)">
            <g id="Group-3" transform="translate(1.215000, 229.966000)">
                <path d="M385.422222,144.084211 C389.08538,144.084211 392.239766,142.795322 394.88538,140.217544 C397.530994,137.639766 398.853801,134.519298 398.853801,130.85614 L398.853801,9.36140351 C398.853801,6.78362573 397.938012,4.57894737 396.106433,2.74736842 C394.274854,0.915789474 392.070175,-5.23557805e-13 389.492398,-5.23557805e-13 C386.91462,-5.23557805e-13 384.74386,0.915789474 382.980117,2.74736842 C381.216374,4.57894737 380.334503,6.78362573 380.334503,9.36140351 L380.334503,119.25614 L301.983626,6.10526316 C298.863158,2.03508772 295.132164,-5.23557805e-13 290.790643,-5.23557805e-13 L288.145029,-5.23557805e-13 C284.481871,-5.23557805e-13 281.361404,1.32280702 278.783626,3.96842105 C276.205848,6.61403509 274.916959,9.76842105 274.916959,13.4315789 L274.916959,134.926316 C274.916959,137.504094 275.79883,139.674854 277.562573,141.438596 C279.326316,143.202339 281.497076,144.084211 284.074854,144.084211 C286.652632,144.084211 288.85731,143.202339 290.688889,141.438596 C292.520468,139.674854 293.436257,137.504094 293.436257,134.926316 L293.436257,24.8280702 L372.194152,138.589474 C373.415205,140.217544 374.975439,141.540351 376.874854,142.557895 C378.774269,143.575439 380.809357,144.084211 382.980117,144.084211 L385.422222,144.084211 Z" id="N" fill="#FFFFFF" fill-rule="nonzero"></path>
                <path d="M274.916959,80.6123626 C274.916959,80.6123626 274.916959,98.7170137 274.916959,134.926316 C274.916959,137.504094 275.79883,139.674854 277.562573,141.438596 C279.326316,143.202339 281.497076,144.084211 284.074854,144.084211 C286.652632,144.084211 288.85731,143.202339 290.688889,141.438596 C292.520468,139.674854 293.436257,137.504094 293.436257,134.926316 L293.436257,80.3214147 C286.617739,79.6517986 280.44464,79.7487812 274.916959,80.6123626 Z" id="N-Top-Btm-Wht" fill="#000000" fill-rule="nonzero"></path>
                <path d="M398.853801,43.2432662 C398.913699,43.1982045 398.913699,31.9042503 398.853801,9.36140351 C398.853801,6.78362573 397.938012,4.57894737 396.106433,2.74736842 C394.274854,0.915789474 392.070175,-5.25801624e-13 389.492398,-5.25801624e-13 C386.91462,-5.25801624e-13 384.74386,0.915789474 382.980117,2.74736842 C381.216374,4.57894737 380.334503,6.78362573 380.334503,9.36140351 C380.334503,39.6780964 380.334503,54.8364429 380.334503,54.8364429 C363.836945,62.1758132 363.836945,62.8567532 343.261651,65.6647696 C334.058976,52.374672 320.299634,32.5215032 301.983626,6.10526316 C298.863158,2.03508772 295.132164,-5.25801624e-13 290.790643,-5.25801624e-13 L288.145029,-5.25801624e-13 C284.481871,-5.25801624e-13 281.361404,1.32280702 278.783626,3.96842105 C276.205848,6.61403509 274.916959,9.76842105 274.916959,13.4315789 L274.916959,48.6758842 C280.105262,53.0340756 286.278361,56.3353828 293.436257,58.5798056 C293.436257,58.5798056 293.436257,47.3292272 293.436257,24.8280702 C312.283965,52.0525365 321.707818,65.6647696 321.707818,65.6647696 C329.916959,66.3936059 362.755047,70.4006001 398.853801,43.2432662 Z" id="N-Top-Top-Wht" fill="#000000" fill-rule="nonzero"></path>
                <path d="M50.0631579,4.07017544 L50.8894905,4.0734526 C65.9978753,4.19361536 78.8487469,7.61825397 89.4421053,14.3473684 C100.22807,21.1988304 108.334503,30.051462 113.761404,40.9052632 C119.188304,51.7590643 121.901754,63.1555556 121.901754,75.0947368 C121.901754,87.0339181 119.188304,98.4304094 113.761404,109.284211 C108.334503,120.138012 100.22807,128.990643 89.4421053,135.842105 C78.6561404,142.693567 65.5298246,146.119298 50.0631579,146.119298 L50.0631579,146.119298 L9.15789474,146.119298 L8.80890242,146.113832 C6.38361606,146.037306 4.3291866,145.157257 2.64561404,143.473684 C0.881871345,141.709942 -4.31311906e-14,139.539181 -4.31311906e-14,136.961404 L-4.31311906e-14,136.961404 L-4.31311906e-14,13.4315789 L0.0054661447,13.0823764 C0.0819921705,10.6541467 0.962041467,8.56586922 2.64561404,6.81754386 C4.40935673,4.98596491 6.58011696,4.07017544 9.15789474,4.07017544 L9.15789474,4.07017544 L50.0631579,4.07017544 Z M47.8245614,21.3684211 L18.5192982,21.3684211 L18.5192982,128.821053 L47.8245614,128.821053 C58.9497076,128.821053 68.7181287,126.548538 77.1298246,122.003509 C85.5415205,117.45848 92.0538012,111.149708 96.6666667,103.077193 C101.279532,95.0046784 103.585965,85.677193 103.585965,75.0947368 C103.585965,64.5122807 101.279532,55.1847953 96.6666667,47.1122807 C92.0538012,39.0397661 85.5415205,32.7309942 77.1298246,28.1859649 C68.7181287,23.6409357 58.9497076,21.3684211 47.8245614,21.3684211 L47.8245614,21.3684211 Z" id="Combined-Shape" fill="#FFFFFF"></path>
                <path d="M199.426901,146.119298 C209.738012,146.119298 218.82807,144.423392 226.697076,141.031579 C234.566082,137.639766 240.671345,132.925146 245.012865,126.887719 C249.354386,120.850292 251.525146,114.032749 251.525146,106.435088 C251.525146,97.2093567 249.184795,89.8830409 244.504094,84.4561404 C239.823392,79.0292398 234.192982,75.0269006 227.612865,72.4491228 C221.032749,69.871345 212.383626,67.2935673 201.665497,64.7157895 C193.389474,62.8163743 186.843275,61.0187135 182.026901,59.322807 C177.210526,57.6269006 173.208187,55.2526316 170.019883,52.2 C166.831579,49.1473684 165.237427,45.1789474 165.237427,40.2947368 C165.237427,32.9684211 168.595322,27.2701754 175.311111,23.2 C182.026901,19.1298246 190.74386,17.0947368 201.461988,17.0947368 C212.722807,17.0947368 223.644444,18.9263158 234.226901,22.5894737 C235.583626,23.1321637 236.669006,23.4035088 237.483041,23.4035088 C239.925146,23.4035088 241.892398,22.5216374 243.384795,20.7578947 C244.877193,18.994152 245.623392,17.0269006 245.623392,14.8561404 C245.623392,10.7859649 243.723977,8.07251462 239.925146,6.71578947 C227.850292,2.23859649 214.350877,3.98901185e-13 199.426901,3.98901185e-13 C188.301754,3.98901185e-13 178.77076,1.86549708 170.833918,5.59649123 C162.897076,9.32748538 156.893567,14.3473684 152.823392,20.6561404 C148.753216,26.9649123 146.718129,33.9859649 146.718129,41.7192982 C146.718129,50.5380117 149.160234,57.5929825 154.044444,62.8842105 C158.928655,68.1754386 164.762573,72.1438596 171.546199,74.7894737 C178.329825,77.4350877 187.216374,80.1824561 198.205848,83.0315789 C206.481871,85.2023392 212.85848,87.0678363 217.335673,88.6280702 C221.812865,90.1883041 225.577778,92.3251462 228.630409,95.0385965 C231.683041,97.7520468 233.209357,101.14386 233.209357,105.214035 C233.209357,120.816374 221.338012,128.617544 197.595322,128.617544 C183.349708,128.617544 169.985965,125.836257 157.504094,120.273684 C156.283041,119.730994 154.994152,119.459649 153.637427,119.459649 C151.195322,119.459649 149.194152,120.307602 147.633918,122.003509 C146.073684,123.699415 145.293567,125.700585 145.293567,128.007018 C145.293567,129.77076 145.836257,131.432749 146.921637,132.992982 C148.007018,134.553216 149.363743,135.672515 150.991813,136.350877 C166.051462,142.863158 182.196491,146.119298 199.426901,146.119298 Z" id="Path" fill="#FFFFFF"></path>
                <path d="M226.697076,141.031579 C234.566082,137.639766 240.671345,132.925146 245.012865,126.887719 C249.354386,120.850292 251.525146,114.032749 251.525146,106.435088 C251.525146,101.081037 250.736932,96.3666957 249.160503,92.2920652 C238.381138,100.788315 232.634407,111.7829 231.486857,114.376006 C229.911695,118.047595 225.706896,131.470083 226.697076,141.031579 Z" id="S-Top-White" fill="#000000"></path>
                <path d="M244.973725,18.2299153 C245.429837,17.1542419 245.623392,16.0562081 245.623392,14.8561404 C245.623392,10.7859649 243.723977,8.07251462 239.925146,6.71578947 C239.365461,6.5082659 238.84288,6.30857871 238.277074,6.11067411 C240.573664,10.9442438 242.386462,14.1901207 244.973725,18.2299153 Z" id="S-Top-Top-White" fill="#000000"></path>
            </g>
            <g id="Group-2" transform="translate(0.715000, 0.966000)">
                <path d="M71.2529974,148.206235 C80.481957,148.206235 88.7269467,147.120475 95.9879665,144.948955 C103.248986,142.777435 110.476076,139.655875 117.669236,135.584275 C120.655076,133.955635 122.147996,131.376955 122.147996,127.848235 C122.147996,125.676715 121.401536,123.844495 119.908616,122.351576 C118.415696,120.858656 116.447756,120.112196 114.004796,120.112196 C112.647596,120.112196 111.426116,120.383636 110.340356,120.926516 C104.368676,124.048075 98.5327164,126.423175 92.8324766,128.051815 C87.1322368,129.680455 80.549817,130.494775 73.0852173,130.494775 C61.4132977,130.494775 51.4718081,128.085745 43.2607484,123.267685 C35.0496887,118.449626 28.8744289,111.867206 24.7349691,103.520426 C20.5955092,95.1736465 18.5257793,85.7071769 18.5257793,75.1210172 C18.5257793,64.5348576 20.5955092,55.068388 24.7349691,46.7216083 C28.8744289,38.3748286 35.0496887,31.7924088 43.2607484,26.974349 C51.4718081,22.1562892 61.4132977,19.7472593 73.0852173,19.7472593 C80.549817,19.7472593 87.1322368,20.5615792 92.8324766,22.1902192 C98.5327164,23.8188591 104.368676,26.193959 110.340356,29.3155189 C111.426116,29.8583989 112.647596,30.1298389 114.004796,30.1298389 C116.447756,30.1298389 118.415696,29.3494489 119.908616,27.788669 C121.401536,26.227889 122.147996,24.4295991 122.147996,22.3937992 C122.147996,18.8650793 120.655076,16.2863994 117.669236,14.6577595 C110.476076,10.5861596 103.248986,7.46459973 95.9879665,5.29307981 C88.7269467,3.12155989 80.481957,2.03579993 71.2529974,2.03579993 C57.6809979,2.03579993 45.5001283,4.98770982 34.7103887,10.8915296 C23.9206491,16.7953494 15.4381494,25.2778491 9.26288966,36.3390287 C3.08762989,47.4002083 4.98800982e-14,60.3275378 4.98800982e-14,75.1210172 C4.98800982e-14,89.9144967 3.08762989,102.841826 9.26288966,113.903006 C15.4381494,124.964185 23.9206491,133.446685 34.7103887,139.350505 C45.5001283,145.254325 57.6809979,148.206235 71.2529974,148.206235 Z" id="C" fill="#000000" fill-rule="nonzero"></path>
                <path d="M237.192627,101.390167 C222.844073,80.6686189 201.321242,49.5862964 172.624134,8.1431997 C169.502574,4.07159985 165.770274,2.03579993 161.427234,2.03579993 L158.780694,2.03579993 C155.116254,2.03579993 151.994694,3.35906988 149.416015,6.00560978 C146.837335,8.65214968 145.547995,11.8076396 145.547995,15.4720794 L145.547995,137.009335 C145.547995,139.588015 146.430175,141.759535 148.194535,143.523895 C149.958894,145.288255 152.130414,146.170435 154.709094,146.170435 C157.287774,146.170435 159.493224,145.288255 161.325444,143.523895 C163.157664,141.759535 164.073774,139.588015 164.073774,137.009335 L164.073774,26.872559 C193.61903,69.5490397 215.777972,101.5564 230.5506,122.894641 C231.275191,123.941272 232.095757,125.126534 233.012298,126.450427 C235.555599,130.124085 241.795895,108.038003 237.192627,101.390167 Z" id="N" fill="#000000" fill-rule="nonzero"></path>
                <path d="M256.091931,146.170435 C259.75637,146.170435 262.91186,144.881095 265.5584,142.302415 C268.20494,139.723735 269.52821,136.602175 269.52821,132.937735 L269.52821,11.4004796 C269.52821,8.82179968 268.6121,6.61634976 266.77988,4.78412982 C264.94766,2.95190989 262.74221,2.03579993 260.16353,2.03579993 C257.584851,2.03579993 255.413331,2.95190989 253.648971,4.78412982 C251.884611,6.61634976 251.002431,8.82179968 251.002431,11.4004796 L251.002431,121.333676 L234.75095,97.9705825 C234.127679,107.504858 232.65418,115.721307 230.330455,122.619928 C230.330455,122.619928 234.506714,128.637877 242.859231,140.673775 C244.080711,142.302415 245.641491,143.625685 247.541571,144.643585 C249.441651,145.661485 251.477451,146.170435 253.648971,146.170435 C252.834651,146.170435 253.648971,146.170435 256.091931,146.170435 Z" id="N-Top-Blk" fill="#FFFFFF" fill-rule="nonzero"></path>
                <path d="M256.091931,146.170435 C259.75637,146.170435 262.91186,144.881095 265.5584,142.302415 C268.20494,139.723735 269.52821,136.602175 269.52821,132.937735 C269.52821,116.294817 269.52821,107.973358 269.52821,107.973358 C250.919096,119.197322 242.167408,139.639555 242.167408,139.639555 C242.423125,140.00804 245.641491,143.625685 247.541571,144.643585 C249.441651,145.661485 251.477451,146.170435 253.648971,146.170435 C252.834651,146.170435 253.648971,146.170435 256.091931,146.170435 Z" id="N-Top-White" fill="#000000" fill-rule="nonzero"></path>
                <path d="M347.080487,146.170435 C357.395207,146.170435 366.488447,144.473935 374.360206,141.080935 C382.231966,137.687935 388.339366,132.971665 392.682406,126.932125 C397.025445,120.892586 399.196965,114.072656 399.196965,106.472336 C399.196965,97.2433764 396.855795,89.9144967 392.173456,84.4856969 C387.491116,79.0568971 381.858736,75.0531572 375.276316,72.4744773 C368.693896,69.8957974 360.041747,67.3171175 349.319867,64.7384376 C341.040947,62.8383577 334.492458,61.0400678 329.674398,59.3435678 C324.856338,57.6470679 320.852598,55.271968 317.663178,52.2182681 C314.473758,49.1645682 312.879049,45.1947583 312.879049,40.3088385 C312.879049,32.9799588 316.238118,27.279719 322.956258,23.2081191 C329.674398,19.1365193 338.394408,17.1007194 349.116287,17.1007194 C360.381047,17.1007194 371.306506,18.9329393 381.892666,22.5973792 C383.249866,23.1402592 384.335626,23.4116991 385.149946,23.4116991 C387.592906,23.4116991 389.560846,22.5295192 391.053766,20.7651592 C392.546686,19.0007993 393.293146,17.0328594 393.293146,14.8613395 C393.293146,10.7897396 391.393066,8.0753397 387.592906,6.71813975 C375.513826,2.23937992 362.009687,-6.65067976e-13 347.080487,-6.65067976e-13 C335.951448,-6.65067976e-13 326.417118,1.86614993 318.477498,5.59844979 C310.537879,9.33074966 304.532269,14.3523895 300.460669,20.6633692 C296.389069,26.974349 294.353269,33.9978588 294.353269,41.7338985 C294.353269,50.5556981 296.796229,57.6131379 301.682149,62.9062177 C306.568069,68.1992975 312.404029,72.1691074 319.190028,74.8156473 C325.976028,77.4621872 334.865688,80.2105171 345.859007,83.060637 C354.137927,85.2321569 360.516767,87.0983068 364.995527,88.6590867 C369.474286,90.2198667 373.240516,92.3574566 376.294216,95.0718565 C379.347916,97.7862564 380.874766,101.179256 380.874766,105.250856 C380.874766,120.858656 368.999266,128.662555 345.248267,128.662555 C330.997668,128.662555 317.629248,125.880295 305.143009,120.315776 C303.921529,119.772896 302.632189,119.501456 301.274989,119.501456 C298.832029,119.501456 296.830159,120.349706 295.269379,122.046206 C293.708599,123.742705 292.928209,125.744575 292.928209,128.051815 C292.928209,129.816175 293.471089,131.478745 294.556849,133.039525 C295.642609,134.600305 296.999809,135.719995 298.628449,136.398595 C313.693368,142.913155 329.844048,146.170435 347.080487,146.170435 Z" id="Path" fill="#000000"></path>
                <path d="M399.196965,106.472336 C399.196965,97.2433764 396.855795,89.9144967 392.173456,84.4856969 C387.491116,79.0568971 381.858736,75.0531572 375.276316,72.4744773 C368.693896,69.8957974 360.041747,67.3171175 349.319867,64.7384376 C341.040947,62.8383577 334.492458,61.0400678 329.674398,59.3435678 C324.856338,57.6470679 320.852598,55.271968 317.663178,52.2182681 C314.473758,49.1645682 312.879049,45.1947583 312.879049,40.3088385 C312.879049,32.9799588 316.238118,27.279719 322.956258,23.2081191 C329.674398,19.1365193 338.394408,17.1007194 349.116287,17.1007194 C360.381047,17.1007194 371.306506,18.9329393 381.892666,22.5973792 C383.249866,23.1402592 384.335626,23.4116991 385.149946,23.4116991 C387.592906,23.4116991 389.560846,22.5295192 391.053766,20.7651592 C392.546686,19.0007993 393.293146,17.0328594 393.293146,14.8613395 C393.293146,10.7897396 391.393066,8.0753397 387.592906,6.71813975 C375.513826,2.23937992 362.009687,-6.67910172e-13 347.080487,-6.67910172e-13 C335.951448,-6.67910172e-13 326.417118,1.86614993 318.477498,5.59844979 C310.537879,9.33074966 304.532269,14.3523895 300.460669,20.6633692 C296.389069,26.974349 294.353269,33.9978588 294.353269,41.7338985 C294.353269,50.5556981 296.796229,57.6131379 301.682149,62.9062177 C306.568069,68.1992975 312.404029,72.1691074 319.190028,74.8156473 C325.976028,77.4621872 334.865688,80.2105171 345.859007,83.060637 C354.137927,85.2321569 360.516767,87.0983068 364.995527,88.6590867 C369.474286,90.2198667 375.276316,94.0163207 376.294216,95.0718565 C389.709741,99.0173601 399.041398,109.611199 399.143351,108.972511 C399.273306,108.158394 399.196965,107.302117 399.196965,106.472336 Z" id="Path-Top-Blk" fill="#FFFFFF"></path>
            </g>
        </g>
    </g>
</svg>