<svg width="191" height="24" fill="none" xmlns="http://www.w3.org/2000/svg"><path fill-rule="evenodd" clip-rule="evenodd" d="M7.484 20.636c5.304 0 8.69-3.638 8.69-8.338v-.06c0-4.7-3.386-8.398-8.69-8.398H2.571v16.796h4.913zM.204 1.627h7.28c6.593 0 11.147 4.578 11.147 10.55v.06c0 5.974-4.554 10.612-11.147 10.612H.204V1.627zM25.11 1.627h15.16v2.182H27.477v7.246h11.447v2.183H27.476v7.428h12.945v2.183H25.109V1.627zM45.303 19.757l1.468-1.759C48.958 20 51.055 21 53.963 21c2.816 0 4.673-1.516 4.673-3.608v-.06c0-1.971-1.048-3.093-5.454-4.033-4.823-1.062-7.04-2.638-7.04-6.125v-.06c0-3.335 2.906-5.79 6.892-5.79 3.056 0 5.243.879 7.37 2.607L59.026 5.78c-1.948-1.607-3.895-2.304-6.052-2.304-2.728 0-4.465 1.516-4.465 3.426v.06c0 2.001 1.08 3.123 5.693 4.123 4.674 1.032 6.831 2.76 6.831 6.004v.06c0 3.639-2.996 6.003-7.16 6.003-3.326 0-6.054-1.122-8.57-3.395M67.495 22.85h2.367V1.626h-2.367v21.222zM76.49 12.299v-.06c0-5.823 4.224-10.976 10.516-10.976 3.536 0 5.723 1.03 7.82 2.819L93.3 5.9c-1.618-1.425-3.416-2.425-6.382-2.425-4.645 0-7.971 3.972-7.971 8.702v.06c0 5.063 3.206 8.822 8.3 8.822 2.397 0 4.614-.94 6.053-2.122v-5.275h-6.382V11.51h8.659v8.458c-1.948 1.758-4.884 3.245-8.42 3.245-6.592 0-10.667-4.852-10.667-10.915M102.615 1.627h2.216l13.215 17.008V1.627h2.307v21.222h-1.888L104.922 5.446V22.85h-2.307V1.627zM127.723 1.627h4.616v16.978h10.457v4.244h-15.073V1.627zM159.843 13.966l-2.786-6.882-2.786 6.882h5.572zM154.99 1.474h4.255l8.989 21.376h-4.825l-1.918-4.761h-8.868l-1.919 4.76H146l8.99-21.375zM182.783 18.756c2.039 0 3.267-.727 3.267-2.304v-.06c0-1.425-1.048-2.304-3.415-2.304H177.3v4.668h5.483zm-1.227-8.55c2.036 0 3.326-.667 3.326-2.243v-.06c0-1.395-1.08-2.184-3.028-2.184H177.3v4.487h4.256zm-8.75-8.58h9.739c2.395 0 4.283.668 5.483 1.88.958.97 1.438 2.153 1.438 3.608v.06c0 2.397-1.259 3.73-2.757 4.58 2.427.94 3.925 2.364 3.925 5.214v.06c0 3.88-3.116 5.821-7.851 5.821h-9.977V1.627z" fill="#fff"/></svg>