<svg xmlns="http://www.w3.org/2000/svg" width="112" height="26" viewBox="0 0 112 26">
    <polygon points="0 0.48 6.81 0.48 11.89 16.82 17.01 0.48 23.7 0.48 14.76 25.04 8.92 25.04 0 0.48" fill="#FFF"/>
    <polygon points="53.91 1.44 58.79 1.44 70.07 15.97 70.07 1.44 75.29 1.44 75.29 25.04 70.78 25.04 59.12 10.04 59.12 25.04 53.91 25.04 53.91 1.44" fill="#FFF"/>
    <path d="M25.56,12.82v-.07a12.55,12.55,0,1,1,25.1,0v.07a12.55,12.55,0,1,1-25.1,0Zm19.68,0v-.07c0-4.23-3-7.75-7.16-7.75S31,8.44,31,12.67v.07c0,4.23,3,7.75,7.16,7.75S45.24,17.05,45.24,12.82Z" fill="#FFF"/>
    <path d="M101.24,26l-2.6-2.4a12.72,12.72,0,0,1-7,2.08A12.32,12.32,0,0,1,79,13.15v-.07a12.61,12.61,0,0,1,25.23,0v.07a12.75,12.75,0,0,1-2.1,7l2.44,2.13Zm-6.5-5.91-3.87-3.38,3.32-3.82,3.92,3.63a8.8,8.8,0,0,0,.64-3.33v-.07c0-4.17-3-7.65-7.19-7.65S84.45,8.87,84.45,13v.07c0,4.17,3,7.65,7.19,7.65A7.06,7.06,0,0,0,94.75,20.09Z" fill="#FFF"/>
    <polygon points="106.89 20.22 112 20.22 112 25.52 106.89 25.52 106.89 20.22" fill="#FFFFFF"/>
</svg>
