<svg height="60" version="1.1" xmlns="http://www.w3.org/2000/svg" xmlns:xlink="http://www.w3.org/1999/xlink" x="0px" y="0px" viewBox="0 0 141.73 252.67" style="enable-background:new 0 0 141.73 252.67;" xml:space="preserve">

    <style type="text/css">
        .st0 {
            fill: url(#color);
        }
    </style>

    <linearGradient id="color" gradientUnits="userSpaceOnUse" x1="-9.02" y1="235.299" x2="150.5182" y2="45.1689">
        <stop offset="0" style="stop-color: #796738"/>
        <stop offset="0.9945" style="stop-color: #A29061"/>
    </linearGradient>

    <path class="st0" d="M35.39,225.72v17.24H23v-14.02c0-3.42-1.83-4.91-4.76-4.91c-3.27,0-5.75,1.93-5.75,6.44v12.49H0.11v-27.1H12.1
        v3.37h0.1c1.29-1.73,5.25-4.11,11.2-4.11C30.24,215.12,35.39,218.19,35.39,225.72z M41.33,242.96h12.39v-27.1H41.33V242.96z
         M53.71,206.35H41.33v6.84h12.39V206.35z M98.3,229.58c0,10.06-7.38,14.47-15.41,14.47c-5.05,0-8.62-1.24-10.75-3.82h-0.1v12.44
        H59.66v-36.82h11.99v3.22h0.1c2.23-2.58,5.65-3.96,11.15-3.96C90.92,215.12,98.3,219.52,98.3,229.58z M85.62,229.58
        c0-3.57-1.98-6.14-6.79-6.14c-4.76,0-6.79,2.28-6.79,6.14c0,3.82,2.03,6.14,6.84,6.14C83.34,235.72,85.62,233.05,85.62,229.58z
         M141.41,229.38c0,10.01-6.09,14.67-20.07,14.67c-13.97,0-20.07-4.66-20.07-14.67c0-9.96,6.09-14.62,20.07-14.62
        C135.31,214.77,141.41,219.43,141.41,229.38z M128.42,229.38c0-4.26-2.08-6.59-7.08-6.59c-4.96,0-7.08,2.33-7.08,6.59
        c0,4.36,2.13,6.64,7.08,6.64C126.34,236.02,128.42,233.74,128.42,229.38z M141.62,70.35C141.46,31.47,109.89,0,70.97,0
        C32.06,0,0.49,31.47,0.33,70.35H0.33v126.62h58.84V70.17h0.01c0.27-6.28,5.45-11.29,11.8-11.29c6.35,0,11.53,5.01,11.8,11.29h0.01
        v126.8h58.84L141.62,70.35L141.62,70.35z"/>
</svg>
