<svg width="120" height="32" viewBox="0 0 120 32" fill="none" xmlns="http://www.w3.org/2000/svg">
<path d="M6.23847 0L4.65234 1.58817C4.65234 1.68501 4.73083 1.76351 4.82767 1.76351H6.23847C6.33572 1.76351 6.41482 1.68542 6.41584 1.58817V0.17737C6.41584 0.0795106 6.33633 0 6.23847 0Z" fill="white"/>
<path d="M7.15189 0H8.56473C8.66157 0 8.74006 0.0784913 8.74006 0.175331V1.58817C8.74006 1.68501 8.66157 1.76351 8.56473 1.76351H7.15189C7.05505 1.76351 6.97656 1.68501 6.97656 1.58817V0.175331C6.97656 0.0784913 7.05505 0 7.15189 0Z" fill="white"/>
<path d="M9.47855 0H10.8914C10.9882 0 11.0667 0.0784913 11.0667 0.175331V1.58817C11.0667 1.68501 10.9882 1.76351 10.8914 1.76351H9.47855C9.38171 1.76351 9.30322 1.68501 9.30322 1.58817V0.175331C9.30322 0.0784913 9.38171 0 9.47855 0Z" fill="white"/>
<path d="M3.91231 2.32617L2.32618 3.91231C2.32516 4.00915 2.40263 4.08866 2.49947 4.08968H3.91231C4.01017 4.08968 4.08968 4.01017 4.08968 3.91231V2.5015C4.08866 2.40426 4.00956 2.32617 3.91231 2.32617Z" fill="white"/>
<path d="M4.82767 2.32617H6.24051C6.33735 2.32617 6.41584 2.40466 6.41584 2.5015V3.91435C6.41584 4.01119 6.33735 4.08968 6.24051 4.08968H4.82767C4.73083 4.08968 4.65234 4.01119 4.65234 3.91435V2.5015C4.65234 2.40466 4.73083 2.32617 4.82767 2.32617Z" fill="white"/>
<path d="M7.15189 2.32617H8.56473C8.66157 2.32617 8.74006 2.40466 8.74006 2.5015V3.91435C8.74006 4.01119 8.66157 4.08968 8.56473 4.08968H7.15189C7.05505 4.08968 6.97656 4.01119 6.97656 3.91435V2.5015C6.97656 2.40466 7.05505 2.32617 7.15189 2.32617Z" fill="white"/>
<path d="M9.47855 2.32617H10.8914C10.9882 2.32617 11.0667 2.40466 11.0667 2.5015V3.91435C11.0667 4.01119 10.9882 4.08968 10.8914 4.08968H9.47855C9.38171 4.08968 9.30322 4.01119 9.30322 3.91435V2.5015C9.30322 2.40466 9.38171 2.32617 9.47855 2.32617Z" fill="white"/>
<path d="M15.5412 2.32617L13.9551 3.91231C13.9551 4.00956 14.0334 4.08866 14.1304 4.08968H15.5412C15.6391 4.08968 15.7186 4.01017 15.7186 3.91231V2.5015C15.7174 2.40426 15.6385 2.32617 15.5412 2.32617Z" fill="white"/>
<path d="M16.4566 2.32617H17.8694C17.9663 2.32617 18.0447 2.40466 18.0447 2.5015V3.91435C18.0447 4.01119 17.9663 4.08968 17.8694 4.08968H16.4566C16.3597 4.08968 16.2812 4.01119 16.2812 3.91435V2.5015C16.2812 2.40466 16.3597 2.32617 16.4566 2.32617Z" fill="white"/>
<path d="M11.6353 2.5015V3.91231C11.6353 4.01017 11.7146 4.08968 11.8126 4.08968H13.2234C13.3207 4.08866 13.3987 4.00956 13.3987 3.91231L11.8126 2.32617C11.7154 2.32617 11.6363 2.40426 11.6353 2.5015Z" fill="white"/>
<path d="M18.6074 2.49747V3.91236C18.6062 4.0092 18.6839 4.08871 18.7807 4.08973H20.1976C20.2955 4.08973 20.375 4.01021 20.375 3.91236L18.7868 2.32622C18.69 2.32398 18.6099 2.40063 18.6074 2.49747Z" fill="white"/>
<path d="M2.5015 4.6524H3.91434C4.01118 4.6524 4.08967 4.7309 4.08967 4.82774V6.24058C4.08967 6.33742 4.01118 6.41591 3.91434 6.41591H2.5015C2.40466 6.41591 2.32617 6.33742 2.32617 6.24058V4.82774C2.32617 4.7309 2.40466 4.6524 2.5015 4.6524Z" fill="white"/>
<path d="M4.82767 4.6524H6.24051C6.33735 4.6524 6.41584 4.7309 6.41584 4.82774V6.24058C6.41584 6.33742 6.33735 6.41591 6.24051 6.41591H4.82767C4.73083 6.41591 4.65234 6.33742 4.65234 6.24058V4.82774C4.65234 4.7309 4.73083 4.6524 4.82767 4.6524Z" fill="white"/>
<path d="M1.58662 4.6524L0.000488281 6.23854C0.000488281 6.33558 0.0785714 6.41489 0.175819 6.41591H1.58662C1.68447 6.41591 1.76398 6.3364 1.76398 6.23854V4.82774C1.76398 4.7309 1.68549 4.6524 1.58865 4.6524H1.58662Z" fill="white"/>
<path d="M7.15189 4.6524H8.56473C8.66157 4.6524 8.74006 4.7309 8.74006 4.82774V6.24058C8.74006 6.33742 8.66157 6.41591 8.56473 6.41591H7.15189C7.05505 6.41591 6.97656 6.33742 6.97656 6.24058V4.82774C6.97656 4.7309 7.05505 4.6524 7.15189 4.6524Z" fill="white"/>
<path d="M9.47855 4.6524H10.8914C10.9882 4.6524 11.0667 4.7309 11.0667 4.82774V6.24058C11.0667 6.33742 10.9882 6.41591 10.8914 6.41591H9.47855C9.38171 6.41591 9.30322 6.33742 9.30322 6.24058V4.82774C9.30322 4.7309 9.38171 4.6524 9.47855 4.6524Z" fill="white"/>
<path d="M14.1304 4.6524H15.5432C15.6401 4.6524 15.7186 4.7309 15.7186 4.82774V6.24058C15.7186 6.33742 15.6401 6.41591 15.5432 6.41591H14.1304C14.0336 6.41591 13.9551 6.33742 13.9551 6.24058V4.82774C13.9551 4.7309 14.0336 4.6524 14.1304 4.6524Z" fill="white"/>
<path d="M16.4566 4.6524H17.8694C17.9663 4.6524 18.0447 4.7309 18.0447 4.82774V6.24058C18.0447 6.33742 17.9663 6.41591 17.8694 6.41591H16.4566C16.3597 6.41591 16.2812 6.33742 16.2812 6.24058V4.82774C16.2812 4.7309 16.3597 4.6524 16.4566 4.6524Z" fill="white"/>
<path d="M11.8037 4.6524H13.2166C13.3134 4.6524 13.3919 4.7309 13.3919 4.82774V6.24058C13.3919 6.33742 13.3134 6.41591 13.2166 6.41591H11.8037C11.7069 6.41591 11.6284 6.33742 11.6284 6.24058V4.82774C11.6284 4.7309 11.7069 4.6524 11.8037 4.6524Z" fill="white"/>
<path d="M18.7828 4.6524H20.1956C20.2922 4.6524 20.3709 4.7309 20.3709 4.82774V6.24058C20.3709 6.33742 20.2922 6.41591 20.1956 6.41591H18.7828C18.6857 6.41591 18.6074 6.33742 18.6074 6.24058V4.82774C18.6074 4.7309 18.6857 4.6524 18.7828 4.6524Z" fill="white"/>
<path d="M2.5015 6.97864H3.91434C4.01118 6.97864 4.08967 7.05713 4.08967 7.15397V8.56681C4.08967 8.66365 4.01118 8.74214 3.91434 8.74214H2.5015C2.40466 8.74214 2.32617 8.66365 2.32617 8.56681V7.15397C2.32617 7.05713 2.40466 6.97864 2.5015 6.97864Z" fill="white"/>
<path d="M4.82767 6.97864H6.24051C6.33735 6.97864 6.41584 7.05713 6.41584 7.15397V8.56681C6.41584 8.66365 6.33735 8.74214 6.24051 8.74214H4.82767C4.73083 8.74214 4.65234 8.66365 4.65234 8.56681V7.15397C4.65234 7.05713 4.73083 6.97864 4.82767 6.97864Z" fill="white"/>
<path d="M0.17533 6.97864H1.58817C1.68501 6.97864 1.7635 7.05713 1.7635 7.15397V8.56681C1.7635 8.66365 1.68501 8.74214 1.58817 8.74214H0.17533C0.0784909 8.74214 0 8.66365 0 8.56681V7.15397C0 7.05713 0.0784909 6.97864 0.17533 6.97864Z" fill="white"/>
<path d="M7.15189 6.97864H8.56473C8.66157 6.97864 8.74006 7.05713 8.74006 7.15397V8.56681C8.74006 8.66365 8.66157 8.74214 8.56473 8.74214H7.15189C7.05505 8.74214 6.97656 8.66365 6.97656 8.56681V7.15397C6.97656 7.05713 7.05505 6.97864 7.15189 6.97864Z" fill="white"/>
<path d="M9.47855 6.97864H10.8914C10.9882 6.97864 11.0667 7.05713 11.0667 7.15397V8.56681C11.0667 8.66365 10.9882 8.74214 10.8914 8.74214H9.47855C9.38171 8.74214 9.30322 8.66365 9.30322 8.56681V7.15397C9.30322 7.05713 9.38171 6.97864 9.47855 6.97864Z" fill="white"/>
<path d="M14.1304 6.97864H15.5432C15.6401 6.97864 15.7186 7.05713 15.7186 7.15397V8.56681C15.7186 8.66365 15.6401 8.74214 15.5432 8.74214H14.1304C14.0336 8.74214 13.9551 8.66365 13.9551 8.56681V7.15397C13.9551 7.05713 14.0336 6.97864 14.1304 6.97864Z" fill="white"/>
<path d="M16.4566 6.97864H17.8694C17.9663 6.97864 18.0447 7.05713 18.0447 7.15397V8.56681C18.0447 8.66365 17.9663 8.74214 17.8694 8.74214H16.4566C16.3597 8.74214 16.2812 8.66365 16.2812 8.56681V7.15397C16.2812 7.05713 16.3597 6.97864 16.4566 6.97864Z" fill="white"/>
<path d="M11.8037 6.97864H13.2166C13.3134 6.97864 13.3919 7.05713 13.3919 7.15397V8.56681C13.3919 8.66365 13.3134 8.74214 13.2166 8.74214H11.8037C11.7069 8.74214 11.6284 8.66365 11.6284 8.56681V7.15397C11.6284 7.05713 11.7069 6.97864 11.8037 6.97864Z" fill="white"/>
<path d="M18.7828 6.97864H20.1956C20.2922 6.97864 20.3709 7.05713 20.3709 7.15397V8.56681C20.3709 8.66365 20.2922 8.74214 20.1956 8.74214H18.7828C18.6857 8.74214 18.6074 8.66365 18.6074 8.56681V7.15397C18.6074 7.05713 18.6857 6.97864 18.7828 6.97864Z" fill="white"/>
<path d="M20.9316 7.15188V8.56473C20.9316 8.66259 21.0112 8.7421 21.109 8.7421H22.5198C22.6166 8.7421 22.6949 8.66361 22.6949 8.56677V8.56473L21.109 6.97859C21.0122 6.97737 20.9327 7.05504 20.9316 7.15188Z" fill="white"/>
<path d="M2.5015 9.30273H3.91434C4.01118 9.30273 4.08967 9.38123 4.08967 9.47807V10.8909C4.08967 10.9877 4.01118 11.0662 3.91434 11.0662H2.5015C2.40466 11.0662 2.32617 10.9877 2.32617 10.8909V9.47807C2.32617 9.38123 2.40466 9.30273 2.5015 9.30273Z" fill="white"/>
<path d="M4.82767 9.30273H6.24051C6.33735 9.30273 6.41584 9.38123 6.41584 9.47807V10.8909C6.41584 10.9877 6.33735 11.0662 6.24051 11.0662H4.82767C4.73083 11.0662 4.65234 10.9877 4.65234 10.8909V9.47807C4.65234 9.38123 4.73083 9.30273 4.82767 9.30273Z" fill="white"/>
<path d="M0.17533 9.30273H1.58817C1.68501 9.30273 1.7635 9.38123 1.7635 9.47807V10.8909C1.7635 10.9877 1.68501 11.0662 1.58817 11.0662H0.17533C0.0784909 11.0662 0 10.9877 0 10.8909V9.47807C0 9.38123 0.0784909 9.30273 0.17533 9.30273Z" fill="white"/>
<path d="M7.15189 9.30273H8.56473C8.66157 9.30273 8.74006 9.38123 8.74006 9.47807V10.8909C8.74006 10.9877 8.66157 11.0662 8.56473 11.0662H7.15189C7.05505 11.0662 6.97656 10.9877 6.97656 10.8909V9.47807C6.97656 9.38123 7.05505 9.30273 7.15189 9.30273Z" fill="white"/>
<path d="M9.47855 9.30273H10.8914C10.9882 9.30273 11.0667 9.38123 11.0667 9.47807V10.8909C11.0667 10.9877 10.9882 11.0662 10.8914 11.0662H9.47855C9.38171 11.0662 9.30322 10.9877 9.30322 10.8909V9.47807C9.30322 9.38123 9.38171 9.30273 9.47855 9.30273Z" fill="white"/>
<path d="M14.1304 9.30273H15.5432C15.6401 9.30273 15.7186 9.38123 15.7186 9.47807V10.8909C15.7186 10.9877 15.6401 11.0662 15.5432 11.0662H14.1304C14.0336 11.0662 13.9551 10.9877 13.9551 10.8909V9.47807C13.9551 9.38123 14.0336 9.30273 14.1304 9.30273Z" fill="white"/>
<path d="M16.4566 9.30273H17.8694C17.9663 9.30273 18.0447 9.38123 18.0447 9.47807V10.8909C18.0447 10.9877 17.9663 11.0662 17.8694 11.0662H16.4566C16.3597 11.0662 16.2812 10.9877 16.2812 10.8909V9.47807C16.2812 9.38123 16.3597 9.30273 16.4566 9.30273Z" fill="white"/>
<path d="M11.8037 9.30273H13.2166C13.3134 9.30273 13.3919 9.38123 13.3919 9.47807V10.8909C13.3919 10.9877 13.3134 11.0662 13.2166 11.0662H11.8037C11.7069 11.0662 11.6284 10.9877 11.6284 10.8909V9.47807C11.6284 9.38123 11.7069 9.30273 11.8037 9.30273Z" fill="white"/>
<path d="M18.7828 9.30273H20.1956C20.2922 9.30273 20.3709 9.38123 20.3709 9.47807V10.8909C20.3709 10.9877 20.2922 11.0662 20.1956 11.0662H18.7828C18.6857 11.0662 18.6074 10.9877 18.6074 10.8909V9.47807C18.6074 9.38123 18.6857 9.30273 18.7828 9.30273Z" fill="white"/>
<path d="M21.1068 9.30273H22.5198C22.6164 9.30273 22.6949 9.38123 22.6949 9.47807V10.8909C22.6949 10.9877 22.6164 11.0662 22.5198 11.0662H21.1068C21.0099 11.0662 20.9316 10.9877 20.9316 10.8909V9.47807C20.9316 9.38123 21.0099 9.30273 21.1068 9.30273Z" fill="white"/>
<path d="M23.2559 9.47608V10.8869C23.2559 10.9837 23.3344 11.0622 23.4312 11.0622H24.844C24.9398 11.0634 25.0183 10.9868 25.0194 10.891V10.8869L23.4332 9.29871C23.3354 9.29871 23.2559 9.37822 23.2559 9.47608Z" fill="white"/>
<path d="M2.5015 11.629H3.91434C4.01118 11.629 4.08967 11.7075 4.08967 11.8043V13.2171C4.08967 13.314 4.01118 13.3925 3.91434 13.3925H2.5015C2.40466 13.3925 2.32617 13.314 2.32617 13.2171V11.8043C2.32617 11.7075 2.40466 11.629 2.5015 11.629Z" fill="white"/>
<path d="M4.82767 11.629H6.24051C6.33735 11.629 6.41584 11.7075 6.41584 11.8043V13.2171C6.41584 13.314 6.33735 13.3925 6.24051 13.3925H4.82767C4.73083 13.3925 4.65234 13.314 4.65234 13.2171V11.8043C4.65234 11.7075 4.73083 11.629 4.82767 11.629Z" fill="white"/>
<path d="M1.58662 11.6289H0.175819C0.0785714 11.6299 0.000488281 11.7092 0.000488281 11.8063L1.58662 13.3924C1.68345 13.3936 1.76276 13.316 1.76398 13.2191V11.8063C1.76398 11.7084 1.68447 11.6289 1.58662 11.6289Z" fill="white"/>
<path d="M7.15189 11.629H8.56473C8.66157 11.629 8.74006 11.7075 8.74006 11.8043V13.2171C8.74006 13.314 8.66157 13.3925 8.56473 13.3925H7.15189C7.05505 13.3925 6.97656 13.314 6.97656 13.2171V11.8043C6.97656 11.7075 7.05505 11.629 7.15189 11.629Z" fill="white"/>
<path d="M9.47855 11.629H10.8914C10.9882 11.629 11.0667 11.7075 11.0667 11.8043V13.2171C11.0667 13.314 10.9882 13.3925 10.8914 13.3925H9.47855C9.38171 13.3925 9.30322 13.314 9.30322 13.2171V11.8043C9.30322 11.7075 9.38171 11.629 9.47855 11.629Z" fill="white"/>
<path d="M14.1304 11.629H15.5432C15.6401 11.629 15.7186 11.7075 15.7186 11.8043V13.2171C15.7186 13.314 15.6401 13.3925 15.5432 13.3925H14.1304C14.0336 13.3925 13.9551 13.314 13.9551 13.2171V11.8043C13.9551 11.7075 14.0336 11.629 14.1304 11.629Z" fill="white"/>
<path d="M16.4566 11.629H17.8694C17.9663 11.629 18.0447 11.7075 18.0447 11.8043V13.2171C18.0447 13.314 17.9663 13.3925 17.8694 13.3925H16.4566C16.3597 13.3925 16.2812 13.314 16.2812 13.2171V11.8043C16.2812 11.7075 16.3597 11.629 16.4566 11.629Z" fill="white"/>
<path d="M11.8037 11.629H13.2166C13.3134 11.629 13.3919 11.7075 13.3919 11.8043V13.2171C13.3919 13.314 13.3134 13.3925 13.2166 13.3925H11.8037C11.7069 13.3925 11.6284 13.314 11.6284 13.2171V11.8043C11.6284 11.7075 11.7069 11.629 11.8037 11.629Z" fill="white"/>
<path d="M18.7828 11.629H20.1956C20.2922 11.629 20.3709 11.7075 20.3709 11.8043V13.2171C20.3709 13.314 20.2922 13.3925 20.1956 13.3925H18.7828C18.6857 13.3925 18.6074 13.314 18.6074 13.2171V11.8043C18.6074 11.7075 18.6857 11.629 18.7828 11.629Z" fill="white"/>
<path d="M21.1068 11.629H22.5198C22.6164 11.629 22.6949 11.7075 22.6949 11.8043V13.2171C22.6949 13.314 22.6164 13.3925 22.5198 13.3925H21.1068C21.0099 13.3925 20.9316 13.314 20.9316 13.2171V11.8043C20.9316 11.7075 21.0099 11.629 21.1068 11.629Z" fill="white"/>
<path d="M25.7614 13.3925L27.3475 11.8063C27.3475 11.7093 27.2692 11.63 27.1722 11.629H25.7614C25.6635 11.629 25.584 11.7085 25.584 11.8063V13.2171C25.584 13.314 25.6627 13.3925 25.7593 13.3925H25.7614Z" fill="white"/>
<path d="M23.4329 11.629H24.8458C24.9426 11.629 25.0211 11.7075 25.0211 11.8043V13.2171C25.0211 13.314 24.9426 13.3925 24.8458 13.3925H23.4329C23.3361 13.3925 23.2578 13.314 23.2578 13.2171V11.8043C23.2578 11.7075 23.3361 11.629 23.4329 11.629Z" fill="white"/>
<path d="M3.9123 13.9612H2.5015C2.40466 13.9612 2.32617 14.0397 2.32617 14.1366V14.1386L3.9123 15.7247C4.00955 15.7247 4.08865 15.6467 4.08967 15.5494V14.1325C4.08641 14.0371 4.00792 13.9612 3.9123 13.9612Z" fill="white"/>
<path d="M6.23847 13.9612H4.82767C4.73083 13.9612 4.65234 14.0397 4.65234 14.1366V15.5494C4.65234 15.6463 4.73083 15.7247 4.82767 15.7247L6.41584 14.1386C6.41584 14.0408 6.33633 13.9612 6.23847 13.9612Z" fill="white"/>
<path d="M9.47855 13.9551H10.8914C10.9882 13.9551 11.0667 14.0336 11.0667 14.1305V15.5433C11.0667 15.6402 10.9882 15.7186 10.8914 15.7186H9.47855C9.38171 15.7186 9.30322 15.6402 9.30322 15.5433V14.1305C9.30322 14.0336 9.38171 13.9551 9.47855 13.9551Z" fill="white"/>
<path d="M14.1304 13.9551H15.5432C15.6401 13.9551 15.7186 14.0336 15.7186 14.1305V15.5433C15.7186 15.6402 15.6401 15.7186 15.5432 15.7186H14.1304C14.0336 15.7186 13.9551 15.6402 13.9551 15.5433V14.1305C13.9551 14.0336 14.0336 13.9551 14.1304 13.9551Z" fill="white"/>
<path d="M16.4566 13.9551H17.8694C17.9663 13.9551 18.0447 14.0336 18.0447 14.1305V15.5433C18.0447 15.6402 17.9663 15.7186 17.8694 15.7186H16.4566C16.3597 15.7186 16.2812 15.6402 16.2812 15.5433V14.1305C16.2812 14.0336 16.3597 13.9551 16.4566 13.9551Z" fill="white"/>
<path d="M11.8037 13.9551H13.2166C13.3134 13.9551 13.3919 14.0336 13.3919 14.1305V15.5433C13.3919 15.6402 13.3134 15.7186 13.2166 15.7186H11.8037C11.7069 15.7186 11.6284 15.6402 11.6284 15.5433V14.1305C11.6284 14.0336 11.7069 13.9551 11.8037 13.9551Z" fill="white"/>
<path d="M18.7828 13.9551H20.1956C20.2922 13.9551 20.3709 14.0336 20.3709 14.1305V15.5433C20.3709 15.6402 20.2922 15.7186 20.1956 15.7186H18.7828C18.6857 15.7186 18.6074 15.6402 18.6074 15.5433V14.1305C18.6074 14.0336 18.6857 13.9551 18.7828 13.9551Z" fill="white"/>
<path d="M21.1068 13.9551H22.5198C22.6164 13.9551 22.6949 14.0336 22.6949 14.1305V15.5433C22.6949 15.6402 22.6164 15.7186 22.5198 15.7186H21.1068C21.0099 15.7186 20.9316 15.6402 20.9316 15.5433V14.1305C20.9316 14.0336 21.0099 13.9551 21.1068 13.9551Z" fill="white"/>
<path d="M23.4329 13.9551H24.8458C24.9426 13.9551 25.0211 14.0336 25.0211 14.1305V15.5433C25.0211 15.6402 24.9426 15.7186 24.8458 15.7186H23.4329C23.3361 15.7186 23.2578 15.6402 23.2578 15.5433V14.1305C23.2578 14.0336 23.3361 13.9551 23.4329 13.9551Z" fill="white"/>
<path d="M9.47855 16.2814H10.8914C10.9882 16.2814 11.0667 16.3599 11.0667 16.4567V17.8695C11.0667 17.9664 10.9882 18.0449 10.8914 18.0449H9.47855C9.38171 18.0449 9.30322 17.9664 9.30322 17.8695V16.4567C9.30322 16.3599 9.38171 16.2814 9.47855 16.2814Z" fill="white"/>
<path d="M14.1304 16.2814H15.5432C15.6401 16.2814 15.7186 16.3599 15.7186 16.4567V17.8695C15.7186 17.9664 15.6401 18.0449 15.5432 18.0449H14.1304C14.0336 18.0449 13.9551 17.9664 13.9551 17.8695V16.4567C13.9551 16.3599 14.0336 16.2814 14.1304 16.2814Z" fill="white"/>
<path d="M16.4566 16.2814H17.8694C17.9663 16.2814 18.0447 16.3599 18.0447 16.4567V17.8695C18.0447 17.9664 17.9663 18.0449 17.8694 18.0449H16.4566C16.3597 18.0449 16.2812 17.9664 16.2812 17.8695V16.4567C16.2812 16.3599 16.3597 16.2814 16.4566 16.2814Z" fill="white"/>
<path d="M11.8037 16.2814H13.2166C13.3134 16.2814 13.3919 16.3599 13.3919 16.4567V17.8695C13.3919 17.9664 13.3134 18.0449 13.2166 18.0449H11.8037C11.7069 18.0449 11.6284 17.9664 11.6284 17.8695V16.4567C11.6284 16.3599 11.7069 16.2814 11.8037 16.2814Z" fill="white"/>
<path d="M18.7828 16.2814H20.1956C20.2922 16.2814 20.3709 16.3599 20.3709 16.4567V17.8695C20.3709 17.9664 20.2922 18.0449 20.1956 18.0449H18.7828C18.6857 18.0449 18.6074 17.9664 18.6074 17.8695V16.4567C18.6074 16.3599 18.6857 16.2814 18.7828 16.2814Z" fill="white"/>
<path d="M21.1068 16.2814H22.5198C22.6164 16.2814 22.6949 16.3599 22.6949 16.4567V17.8695C22.6949 17.9664 22.6164 18.0449 22.5198 18.0449H21.1068C21.0099 18.0449 20.9316 17.9664 20.9316 17.8695V16.4567C20.9316 16.3599 21.0099 16.2814 21.1068 16.2814Z" fill="white"/>
<path d="M24.8458 16.2814H23.435C23.3379 16.2814 23.2588 16.3595 23.2578 16.4567V17.8675C23.2578 17.9654 23.3371 18.0449 23.435 18.0449L25.0211 16.4567C25.0211 16.3599 24.9428 16.2814 24.8458 16.2814Z" fill="white"/>
<path d="M10.8952 18.6075H9.4801C9.38326 18.6065 9.30396 18.6839 9.30273 18.7808V18.7828L10.8909 20.371C10.9877 20.371 11.0662 20.2925 11.0662 20.1957V18.7828C11.0675 18.6872 10.9908 18.6087 10.8952 18.6075Z" fill="white"/>
<path d="M14.1304 18.6075H15.5432C15.6401 18.6075 15.7186 18.686 15.7186 18.7829V20.1957C15.7186 20.2926 15.6401 20.3711 15.5432 20.3711H14.1304C14.0336 20.3711 13.9551 20.2926 13.9551 20.1957V18.7829C13.9551 18.686 14.0336 18.6075 14.1304 18.6075Z" fill="white"/>
<path d="M16.4566 18.6075H17.8694C17.9663 18.6075 18.0447 18.686 18.0447 18.7829V20.1957C18.0447 20.2926 17.9663 20.3711 17.8694 20.3711H16.4566C16.3597 20.3711 16.2812 20.2926 16.2812 20.1957V18.7829C16.2812 18.686 16.3597 18.6075 16.4566 18.6075Z" fill="white"/>
<path d="M11.8037 18.6075H13.2166C13.3134 18.6075 13.3919 18.686 13.3919 18.7829V20.1957C13.3919 20.2926 13.3134 20.3711 13.2166 20.3711H11.8037C11.7069 20.3711 11.6284 20.2926 11.6284 20.1957V18.7829C11.6284 18.686 11.7069 18.6075 11.8037 18.6075Z" fill="white"/>
<path d="M18.7828 18.6075H20.1956C20.2922 18.6075 20.3709 18.686 20.3709 18.7829V20.1957C20.3709 20.2926 20.2922 20.3711 20.1956 20.3711H18.7828C18.6857 20.3711 18.6074 20.2926 18.6074 20.1957V18.7829C18.6074 18.686 18.6857 18.6075 18.7828 18.6075Z" fill="white"/>
<path d="M21.1068 18.6075H22.5198C22.6164 18.6075 22.6949 18.686 22.6949 18.7829V20.1957C22.6949 20.2926 22.6164 20.3711 22.5198 20.3711H21.1068C21.0099 20.3711 20.9316 20.2926 20.9316 20.1957V18.7829C20.9316 18.686 21.0099 18.6075 21.1068 18.6075Z" fill="white"/>
<path d="M14.1304 20.9337H15.5432C15.6401 20.9337 15.7186 21.0122 15.7186 21.109V22.5219C15.7186 22.6187 15.6401 22.6972 15.5432 22.6972H14.1304C14.0336 22.6972 13.9551 22.6187 13.9551 22.5219V21.109C13.9551 21.0122 14.0336 20.9337 14.1304 20.9337Z" fill="white"/>
<path d="M16.4566 20.9337H17.8694C17.9663 20.9337 18.0447 21.0122 18.0447 21.109V22.5219C18.0447 22.6187 17.9663 22.6972 17.8694 22.6972H16.4566C16.3597 22.6972 16.2812 22.6187 16.2812 22.5219V21.109C16.2812 21.0122 16.3597 20.9337 16.4566 20.9337Z" fill="white"/>
<path d="M11.8037 20.9337H13.2166C13.3134 20.9337 13.3919 21.0122 13.3919 21.109V22.5219C13.3919 22.6187 13.3134 22.6972 13.2166 22.6972H11.8037C11.7069 22.6972 11.6284 22.6187 11.6284 22.5219V21.109C11.6284 21.0122 11.7069 20.9337 11.8037 20.9337Z" fill="white"/>
<path d="M18.7828 20.9337H20.1956C20.2922 20.9337 20.3709 21.0122 20.3709 21.109V22.5219C20.3709 22.6187 20.2922 22.6972 20.1956 22.6972H18.7828C18.6857 22.6972 18.6074 22.6187 18.6074 22.5219V21.109C18.6074 21.0122 18.6857 20.9337 18.7828 20.9337Z" fill="white"/>
<path d="M21.1068 20.9337H22.5198C22.6164 20.9337 22.6949 21.0122 22.6949 21.109V22.5219C22.6949 22.6187 22.6164 22.6972 22.5198 22.6972H21.1068C21.0099 22.6972 20.9316 22.6187 20.9316 22.5219V21.109C20.9316 21.0122 21.0099 20.9337 21.1068 20.9337Z" fill="white"/>
<path d="M27.1721 20.9337L25.584 22.5239C25.584 22.622 25.6635 22.7013 25.7614 22.7013H27.1721C27.2694 22.7003 27.3475 22.6212 27.3475 22.5239V21.1131C27.3497 21.0163 27.2731 20.936 27.1764 20.9337H27.1721Z" fill="white"/>
<path d="M14.1304 23.2579H15.5432C15.6401 23.2579 15.7186 23.3364 15.7186 23.4332V24.846C15.7186 24.9429 15.6401 25.0214 15.5432 25.0214H14.1304C14.0336 25.0214 13.9551 24.9429 13.9551 24.846V23.4332C13.9551 23.3364 14.0336 23.2579 14.1304 23.2579Z" fill="white"/>
<path d="M16.4566 23.2579H17.8694C17.9663 23.2579 18.0447 23.3364 18.0447 23.4332V24.846C18.0447 24.9429 17.9663 25.0214 17.8694 25.0214H16.4566C16.3597 25.0214 16.2812 24.9429 16.2812 24.846V23.4332C16.2812 23.3364 16.3597 23.2579 16.4566 23.2579Z" fill="white"/>
<path d="M11.8037 23.2579H13.2166C13.3134 23.2579 13.3919 23.3364 13.3919 23.4332V24.846C13.3919 24.9429 13.3134 25.0214 13.2166 25.0214H11.8037C11.7069 25.0214 11.6284 24.9429 11.6284 24.846V23.4332C11.6284 23.3364 11.7069 23.2579 11.8037 23.2579Z" fill="white"/>
<path d="M18.7828 23.2579H20.1956C20.2922 23.2579 20.3709 23.3364 20.3709 23.4332V24.846C20.3709 24.9429 20.2922 25.0214 20.1956 25.0214H18.7828C18.6857 25.0214 18.6074 24.9429 18.6074 24.846V23.4332C18.6074 23.3364 18.6857 23.2579 18.7828 23.2579Z" fill="white"/>
<path d="M22.5218 23.2579H21.109C21.0112 23.2579 20.9316 23.3374 20.9316 23.4352V24.846C20.9316 24.9429 21.0101 25.0214 21.1068 25.0214H21.109L22.6949 23.4352C22.6962 23.3386 22.6185 23.2591 22.5218 23.2579Z" fill="white"/>
<path d="M25.7598 23.2579H27.1726C27.2695 23.2579 27.348 23.3364 27.348 23.4332V24.846C27.348 24.9429 27.2695 25.0214 27.1726 25.0214H25.7598C25.663 25.0214 25.5845 24.9429 25.5845 24.846V23.4332C25.5845 23.3364 25.663 23.2579 25.7598 23.2579Z" fill="white"/>
<path d="M14.1304 25.5841H15.5432C15.6401 25.5841 15.7186 25.6626 15.7186 25.7594V27.1723C15.7186 27.2691 15.6401 27.3476 15.5432 27.3476H14.1304C14.0336 27.3476 13.9551 27.2691 13.9551 27.1723V25.7594C13.9551 25.6626 14.0336 25.5841 14.1304 25.5841Z" fill="white"/>
<path d="M16.4566 25.5841H17.8694C17.9663 25.5841 18.0447 25.6626 18.0447 25.7594V27.1723C18.0447 27.2691 17.9663 27.3476 17.8694 27.3476H16.4566C16.3597 27.3476 16.2812 27.2691 16.2812 27.1723V25.7594C16.2812 25.6626 16.3597 25.5841 16.4566 25.5841Z" fill="white"/>
<path d="M11.8037 25.5841H13.2166C13.3134 25.5841 13.3919 25.6626 13.3919 25.7594V27.1723C13.3919 27.2691 13.3134 27.3476 13.2166 27.3476H11.8037C11.7069 27.3476 11.6284 27.2691 11.6284 27.1723V25.7594C11.6284 25.6626 11.7069 25.5841 11.8037 25.5841Z" fill="white"/>
<path d="M18.7828 25.5841H20.1956C20.2922 25.5841 20.3709 25.6626 20.3709 25.7594V27.1723C20.3709 27.2691 20.2922 27.3476 20.1956 27.3476H18.7828C18.6857 27.3476 18.6074 27.2691 18.6074 27.1723V25.7594C18.6074 25.6626 18.6857 25.5841 18.7828 25.5841Z" fill="white"/>
<path d="M27.1722 25.5822H25.7614C25.6635 25.5822 25.584 25.6617 25.584 25.7596V27.1704C25.584 27.2672 25.6627 27.3455 25.7593 27.3455H25.7614L27.3475 25.7596C27.3475 25.6625 27.2694 25.5832 27.1722 25.5822Z" fill="white"/>
<path d="M14.1304 27.9105H15.5432C15.6401 27.9105 15.7186 27.989 15.7186 28.0856V29.4987C15.7186 29.5955 15.6401 29.6738 15.5432 29.6738H14.1304C14.0336 29.6738 13.9551 29.5955 13.9551 29.4987V28.0856C13.9551 27.989 14.0336 27.9105 14.1304 27.9105Z" fill="white"/>
<path d="M16.4566 27.9105H17.8694C17.9663 27.9105 18.0447 27.989 18.0447 28.0856V29.4987C18.0447 29.5955 17.9663 29.6738 17.8694 29.6738H16.4566C16.3597 29.6738 16.2812 29.5955 16.2812 29.4987V28.0856C16.2812 27.989 16.3597 27.9105 16.4566 27.9105Z" fill="white"/>
<path d="M13.2171 27.9105H11.8063C11.7084 27.9105 11.6289 27.99 11.6289 28.0879L13.2171 29.6738C13.3135 29.673 13.3912 29.5951 13.3924 29.4987V28.0879C13.3924 27.9908 13.3143 27.9115 13.2171 27.9105Z" fill="white"/>
<path d="M20.1975 27.9105H18.7867C18.6898 27.9105 18.6115 27.989 18.6113 28.0856C18.6113 28.0865 18.6115 28.0871 18.6115 28.0879V29.4987C18.6115 29.5955 18.6898 29.6738 18.7867 29.6738L20.3748 28.0879C20.3748 27.99 20.2953 27.9105 20.1975 27.9105Z" fill="white"/>
<path d="M14.1304 30.2367H15.5432C15.6401 30.2367 15.7186 30.3152 15.7186 30.4118V31.8249C15.7186 31.9217 15.6401 32 15.5432 32H14.1304C14.0336 32 13.9551 31.9217 13.9551 31.8249V30.4118C13.9551 30.3152 14.0336 30.2367 14.1304 30.2367Z" fill="white"/>
<path d="M17.8674 30.2367H16.4566C16.3598 30.2367 16.2813 30.3152 16.2813 30.4118V31.8226C16.2802 31.9197 16.3577 31.999 16.4546 32H16.4566L18.0448 30.4118C18.0435 30.3148 17.9646 30.2367 17.8674 30.2367Z" fill="white"/>
<path fill-rule="evenodd" clip-rule="evenodd" d="M41.1462 13.5749C41.1462 13.7712 40.9867 13.9306 40.791 13.9306H38.5897C38.3942 13.9306 38.2354 13.7712 38.2354 13.5749V11.3744C38.2354 11.1787 38.3942 11.0195 38.5897 11.0195H40.791C40.9867 11.0195 41.1462 11.1787 41.1462 11.3744V13.5749Z" fill="white"/>
<path fill-rule="evenodd" clip-rule="evenodd" d="M48.4232 13.5749C48.4232 13.7712 48.2644 13.9306 48.068 13.9306H45.867C45.6716 13.9306 45.5127 13.7712 45.5127 13.5749V11.3744C45.5127 11.1787 45.6716 11.0195 45.867 11.0195H48.068C48.2644 11.0195 48.4232 11.1787 48.4232 11.3744V13.5749Z" fill="white"/>
<path fill-rule="evenodd" clip-rule="evenodd" d="M41.1462 9.93609C41.1462 10.1324 40.9867 10.2916 40.791 10.2916H38.5897C38.3942 10.2916 38.2354 10.1324 38.2354 9.93609V7.73564C38.2354 7.5402 38.3942 7.38104 38.5897 7.38104H40.791C40.9867 7.38104 41.1462 7.5402 41.1462 7.73564V9.93609Z" fill="white"/>
<path fill-rule="evenodd" clip-rule="evenodd" d="M44.7851 9.93609C44.7851 10.1324 44.6257 10.2916 44.4294 10.2916H42.2289C42.0332 10.2916 41.874 10.1324 41.874 9.93609V7.73564C41.874 7.5402 42.0332 7.38104 42.2289 7.38104H44.4294C44.6257 7.38104 44.7851 7.5402 44.7851 7.73564V9.93609Z" fill="white"/>
<path fill-rule="evenodd" clip-rule="evenodd" d="M48.4232 9.93609C48.4232 10.1324 48.2644 10.2916 48.068 10.2916H45.867C45.6716 10.2916 45.5127 10.1324 45.5127 9.93609V7.73564C45.5127 7.5402 45.6716 7.38104 45.867 7.38104H48.068C48.2644 7.38104 48.4232 7.5402 48.4232 7.73564V9.93609Z" fill="white"/>
<path fill-rule="evenodd" clip-rule="evenodd" d="M41.1462 6.29735C41.1462 6.49366 40.9867 6.65282 40.791 6.65282H38.5897C38.3942 6.65282 38.2354 6.49366 38.2354 6.29735V4.0966C38.2354 3.90146 38.3942 3.742 38.5897 3.742H40.791C40.9867 3.742 41.1462 3.90146 41.1462 4.0966V6.29735Z" fill="white"/>
<path fill-rule="evenodd" clip-rule="evenodd" d="M48.4232 6.29735C48.4232 6.49366 48.2644 6.65282 48.068 6.65282H45.867C45.6716 6.65282 45.5127 6.49366 45.5127 6.29735V4.0966C45.5127 3.90146 45.6716 3.742 45.867 3.742H48.068C48.2644 3.742 48.4232 3.90146 48.4232 4.0966V6.29735Z" fill="white"/>
<path fill-rule="evenodd" clip-rule="evenodd" d="M44.7851 2.65891C44.7851 2.85522 44.6257 3.01438 44.4294 3.01438H42.2289C42.0332 3.01438 41.874 2.85522 41.874 2.65891V0.458164C41.874 0.262432 42.0332 0.103271 42.2289 0.103271H44.4294C44.6257 0.103271 44.7851 0.262432 44.7851 0.458164V2.65891Z" fill="white"/>
<path fill-rule="evenodd" clip-rule="evenodd" d="M41.1462 2.65891C41.1462 2.85522 40.9867 3.01438 40.791 3.01438H38.5897C38.3942 3.01438 38.2354 2.85522 38.2354 2.65891L40.791 0.103271C40.9867 0.103271 41.1462 0.262432 41.1462 0.458164V2.65891Z" fill="white"/>
<path fill-rule="evenodd" clip-rule="evenodd" d="M48.4232 2.65891C48.4232 2.85522 48.2644 3.01438 48.068 3.01438H45.867C45.6716 3.01438 45.5127 2.85522 45.5127 2.65891V0.458164C45.5127 0.262432 45.6716 0.103271 45.867 0.103271L48.4232 2.65891Z" fill="white"/>
<path fill-rule="evenodd" clip-rule="evenodd" d="M54.2458 13.4718C54.2458 13.6682 54.0863 13.8276 53.8903 13.8276H51.6896C51.4941 13.8276 51.335 13.6682 51.335 13.4718V11.2714C51.335 11.0757 51.4941 10.9165 51.6896 10.9165H53.8903C54.0863 10.9165 54.2458 11.0757 54.2458 11.2714V13.4718Z" fill="white"/>
<path fill-rule="evenodd" clip-rule="evenodd" d="M54.2458 9.83313C54.2458 10.0292 54.0863 10.1889 53.8903 10.1889H51.6896C51.4941 10.1889 51.335 10.0292 51.335 9.83313V7.63268C51.335 7.43665 51.4941 7.27808 51.6896 7.27808H53.8903C54.0863 7.27808 54.2458 7.43665 54.2458 7.63268V9.83313Z" fill="white"/>
<path fill-rule="evenodd" clip-rule="evenodd" d="M55.328 10.1889C55.1323 10.1889 54.9731 10.0292 54.9731 9.83313V7.63268C54.9731 7.43665 55.1323 7.27808 55.328 7.27808H57.5285C57.7248 7.27808 57.8843 7.43665 57.8843 7.63268L55.328 10.1889Z" fill="white"/>
<path fill-rule="evenodd" clip-rule="evenodd" d="M54.2458 6.19378C54.2458 6.3901 54.0863 6.54985 53.8903 6.54985H51.6896C51.4941 6.54985 51.335 6.3901 51.335 6.19378V3.99333C51.335 3.79789 51.4941 3.63873 51.6896 3.63873H53.8903C54.0863 3.63873 54.2458 3.79789 54.2458 3.99333V6.19378Z" fill="white"/>
<path fill-rule="evenodd" clip-rule="evenodd" d="M54.2458 2.55534C54.2458 2.75166 54.0863 2.91082 53.8903 2.91082H51.6896C51.4941 2.91082 51.335 2.75166 51.335 2.55534V0.3546C51.335 0.159453 51.4941 0 51.6896 0H53.8903C54.0863 0 54.2458 0.159453 54.2458 0.3546V2.55534Z" fill="white"/>
<path fill-rule="evenodd" clip-rule="evenodd" d="M57.8843 2.55534C57.8843 2.75166 57.7248 2.91082 57.5285 2.91082H55.328C55.132 2.91082 54.9731 2.75166 54.9731 2.55534V0.3546C54.9731 0.159453 55.132 0 55.328 0H57.5285C57.7248 0 57.8843 0.159453 57.8843 0.3546V2.55534Z" fill="white"/>
<path fill-rule="evenodd" clip-rule="evenodd" d="M58.9667 2.91082C58.7713 2.91082 58.6118 2.75166 58.6118 2.55505V0.354307C58.6118 0.159453 58.7713 0 58.9667 0H61.1675C61.3641 0 61.5229 0.159453 61.5229 0.354307L58.9667 2.91082Z" fill="white"/>
<path fill-rule="evenodd" clip-rule="evenodd" d="M66.6175 13.5749C66.6175 13.7712 66.4583 13.9306 66.262 13.9306H64.0609C63.8655 13.9306 63.7061 13.7712 63.7061 13.5749V11.3744C63.7061 11.1787 63.8655 11.0195 64.0609 11.0195H66.262C66.4583 11.0195 66.6175 11.1787 66.6175 11.3744V13.5749Z" fill="white"/>
<path fill-rule="evenodd" clip-rule="evenodd" d="M70.256 13.5749C70.256 13.7712 70.0969 13.9306 69.9006 13.9306L67.3452 11.3744C67.3452 11.1787 67.5047 11.0195 67.6998 11.0195H69.9006C70.0969 11.0195 70.256 11.1787 70.256 11.3744V13.5749Z" fill="white"/>
<path fill-rule="evenodd" clip-rule="evenodd" d="M73.8947 13.5749C73.8947 13.7712 73.7353 13.9306 73.5389 13.9306H71.3382C71.1428 13.9306 70.9839 13.7712 70.9839 13.5749V11.3744C70.9839 11.1787 71.1428 11.0195 71.3382 11.0195L73.8947 13.5749Z" fill="white"/>
<path fill-rule="evenodd" clip-rule="evenodd" d="M66.6175 9.93609C66.6175 10.1324 66.4583 10.2916 66.262 10.2916H64.0609C63.8655 10.2916 63.7061 10.1324 63.7061 9.93609V7.73564C63.7061 7.5402 63.8655 7.38104 64.0609 7.38104H66.262C66.4583 7.38104 66.6175 7.5402 66.6175 7.73564V9.93609Z" fill="white"/>
<path fill-rule="evenodd" clip-rule="evenodd" d="M70.256 9.93609C70.256 10.1324 70.0969 10.2916 69.9006 10.2916H67.6998C67.5047 10.2916 67.3452 10.1324 67.3452 9.93609V7.73564C67.3452 7.5402 67.5047 7.38104 67.6998 7.38104H69.9006C70.0969 7.38104 70.256 7.5402 70.256 7.73564V9.93609Z" fill="white"/>
<path fill-rule="evenodd" clip-rule="evenodd" d="M71.3385 10.2916C71.143 10.2916 70.9839 10.1321 70.9839 9.93579V7.73504C70.9839 7.53961 71.143 7.38074 71.3385 7.38074H73.5389C73.7355 7.38074 73.895 7.53961 73.895 7.73504L71.3385 10.2916Z" fill="white"/>
<path fill-rule="evenodd" clip-rule="evenodd" d="M66.6175 6.29735C66.6175 6.49366 66.4583 6.65282 66.262 6.65282H64.0609C63.8655 6.65282 63.7061 6.49366 63.7061 6.29735V4.0966C63.7061 3.90146 63.8655 3.742 64.0609 3.742H66.262C66.4583 3.742 66.6175 3.90146 66.6175 4.0966V6.29735Z" fill="white"/>
<path fill-rule="evenodd" clip-rule="evenodd" d="M73.8947 6.29735C73.8947 6.49366 73.7353 6.65282 73.5389 6.65282H71.3382C71.1428 6.65282 70.9839 6.49366 70.9839 6.29735V4.0966C70.9839 3.90146 71.1428 3.742 71.3382 3.742H73.5389C73.7353 3.742 73.8947 3.90146 73.8947 4.0966V6.29735Z" fill="white"/>
<path fill-rule="evenodd" clip-rule="evenodd" d="M70.256 2.65891C70.256 2.85464 70.0969 3.0138 69.9006 3.0138H67.6998C67.5047 3.0138 67.3452 2.85464 67.3452 2.65891V0.458164C67.3452 0.262139 67.5047 0.103271 67.6998 0.103271H69.9006C70.0969 0.103271 70.256 0.262139 70.256 0.458164V2.65891Z" fill="white"/>
<path fill-rule="evenodd" clip-rule="evenodd" d="M73.8947 2.65891C73.8947 2.85464 73.7353 3.0138 73.5389 3.0138H71.3382C71.1428 3.0138 70.9839 2.85464 70.9839 2.65891V0.458164C70.9839 0.262139 71.1428 0.103271 71.3382 0.103271L73.8947 2.65891Z" fill="white"/>
<path fill-rule="evenodd" clip-rule="evenodd" d="M66.6175 2.65891C66.6175 2.85464 66.4583 3.0138 66.262 3.0138H64.0609C63.8655 3.0138 63.7061 2.85464 63.7061 2.65891L66.262 0.103271C66.4583 0.103271 66.6175 0.262139 66.6175 0.458164V2.65891Z" fill="white"/>
<path fill-rule="evenodd" clip-rule="evenodd" d="M79.7174 13.5749C79.7174 13.7712 79.5582 13.9306 79.3619 13.9306H77.1606C76.9651 13.9306 76.8057 13.7712 76.8057 13.5749V11.3744C76.8057 11.1787 76.9651 11.0195 77.1606 11.0195H79.3619C79.5582 11.0195 79.7174 11.1787 79.7174 11.3744V13.5749Z" fill="white"/>
<path fill-rule="evenodd" clip-rule="evenodd" d="M79.7174 9.93609C79.7174 10.1324 79.5582 10.2916 79.3619 10.2916H77.1606C76.9651 10.2916 76.8057 10.1324 76.8057 9.93609V7.73564C76.8057 7.5402 76.9651 7.38104 77.1606 7.38104H79.3619C79.5582 7.38104 79.7174 7.5402 79.7174 7.73564V9.93609Z" fill="white"/>
<path fill-rule="evenodd" clip-rule="evenodd" d="M79.7174 2.65891C79.7174 2.85464 79.5582 3.0138 79.3619 3.0138H77.1606C76.9651 3.0138 76.8057 2.85464 76.8057 2.65891V0.458164C76.8057 0.262139 76.9651 0.103271 77.1606 0.103271H79.3619C79.5582 0.103271 79.7174 0.262139 79.7174 0.458164V2.65891Z" fill="white"/>
<path fill-rule="evenodd" clip-rule="evenodd" d="M85.5392 13.5749C85.5392 13.7712 85.3798 13.9306 85.1835 13.9306L82.6284 11.3744C82.6284 11.1787 82.7876 11.0195 82.983 11.0195H85.1835C85.3798 11.0195 85.5392 11.1787 85.5392 11.3744V13.5749Z" fill="white"/>
<path fill-rule="evenodd" clip-rule="evenodd" d="M89.1782 13.5749C89.1782 13.7712 89.0185 13.9306 88.8221 13.9306H86.6223C86.4263 13.9306 86.2671 13.7712 86.2671 13.5749V11.3744C86.2671 11.1787 86.4263 11.0195 86.6223 11.0195H88.8221C89.0185 11.0195 89.1782 11.1787 89.1782 11.3744V13.5749Z" fill="white"/>
<path fill-rule="evenodd" clip-rule="evenodd" d="M90.2602 13.9306C90.0644 13.9306 89.9053 13.7712 89.9053 13.5749V11.3741C89.9053 11.1784 90.0644 11.0192 90.2602 11.0192H92.4612C92.6575 11.0192 92.8167 11.1784 92.8167 11.3741L90.2602 13.9306Z" fill="white"/>
<path fill-rule="evenodd" clip-rule="evenodd" d="M85.5392 9.93609C85.5392 10.1324 85.3798 10.2916 85.1835 10.2916H82.983C82.7876 10.2916 82.6284 10.1324 82.6284 9.93609V7.73564C82.6284 7.5402 82.7876 7.38104 82.983 7.38104H85.1835C85.3798 7.38104 85.5392 7.5402 85.5392 7.73564V9.93609Z" fill="white"/>
<path fill-rule="evenodd" clip-rule="evenodd" d="M85.5392 6.29735C85.5392 6.49366 85.3798 6.65282 85.1835 6.65282H82.983C82.7876 6.65282 82.6284 6.49366 82.6284 6.29735V4.0966C82.6284 3.90146 82.7876 3.742 82.983 3.742H85.1835C85.3798 3.742 85.5392 3.90146 85.5392 4.0966V6.29735Z" fill="white"/>
<path fill-rule="evenodd" clip-rule="evenodd" d="M85.5392 2.65891C85.5392 2.85522 85.3798 3.01438 85.1835 3.01438H82.983C82.7876 3.01438 82.6284 2.85522 82.6284 2.65891L85.1835 0.103271C85.3798 0.103271 85.5392 0.262432 85.5392 0.458164V2.65891Z" fill="white"/>
<path fill-rule="evenodd" clip-rule="evenodd" d="M89.1782 2.65891C89.1782 2.85522 89.0185 3.01438 88.8221 3.01438H86.6223C86.4263 3.01438 86.2671 2.85522 86.2671 2.65891V0.458164C86.2671 0.262432 86.4263 0.103271 86.6223 0.103271H88.8221C89.0185 0.103271 89.1782 0.262432 89.1782 0.458164V2.65891Z" fill="white"/>
<path fill-rule="evenodd" clip-rule="evenodd" d="M92.8169 2.65891C92.8169 2.85522 92.6577 3.01438 92.4614 3.01438H90.2607C90.0646 3.01438 89.9058 2.85522 89.9058 2.65891V0.458164C89.9058 0.262432 90.0646 0.103271 90.2607 0.103271L92.8169 2.65891Z" fill="white"/>
<path fill-rule="evenodd" clip-rule="evenodd" d="M98.6386 13.5749C98.6386 13.7712 98.48 13.9306 98.2837 13.9306H96.0823C95.8872 13.9306 95.728 13.7712 95.728 13.5749V11.3744C95.728 11.1787 95.8872 11.0195 96.0823 11.0195H98.2837C98.48 11.0195 98.6386 11.1787 98.6386 11.3744V13.5749Z" fill="white"/>
<path fill-rule="evenodd" clip-rule="evenodd" d="M105.916 13.5749C105.916 13.7712 105.757 13.9306 105.561 13.9306H103.361C103.164 13.9306 103.006 13.7712 103.006 13.5749V11.3744C103.006 11.1787 103.164 11.0195 103.361 11.0195H105.561C105.757 11.0195 105.916 11.1787 105.916 11.3744V13.5749Z" fill="white"/>
<path fill-rule="evenodd" clip-rule="evenodd" d="M98.6386 9.93609C98.6386 10.1324 98.48 10.2916 98.2837 10.2916H96.0823C95.8872 10.2916 95.728 10.1324 95.728 9.93609V7.73564C95.728 7.5402 95.8872 7.38104 96.0823 7.38104H98.2837C98.48 7.38104 98.6386 7.5402 98.6386 7.73564V9.93609Z" fill="white"/>
<path fill-rule="evenodd" clip-rule="evenodd" d="M102.278 9.93609C102.278 10.1324 102.118 10.2916 101.922 10.2916H99.7216C99.5256 10.2916 99.3667 10.1324 99.3667 9.93609V7.73564C99.3667 7.5402 99.5256 7.38104 99.7216 7.38104H101.922C102.118 7.38104 102.278 7.5402 102.278 7.73564V9.93609Z" fill="white"/>
<path fill-rule="evenodd" clip-rule="evenodd" d="M105.916 9.93609C105.916 10.1324 105.757 10.2916 105.561 10.2916H103.361C103.164 10.2916 103.006 10.1324 103.006 9.93609V7.73564C103.006 7.5402 103.164 7.38104 103.361 7.38104H105.561C105.757 7.38104 105.916 7.5402 105.916 7.73564V9.93609Z" fill="white"/>
<path fill-rule="evenodd" clip-rule="evenodd" d="M98.6386 6.29735C98.6386 6.49366 98.48 6.65282 98.2837 6.65282H96.0823C95.8872 6.65282 95.728 6.49366 95.728 6.29735V4.0966C95.728 3.90146 95.8872 3.742 96.0823 3.742H98.2837C98.48 3.742 98.6386 3.90146 98.6386 4.0966V6.29735Z" fill="white"/>
<path fill-rule="evenodd" clip-rule="evenodd" d="M105.916 6.29735C105.916 6.49366 105.757 6.65282 105.561 6.65282H103.361C103.164 6.65282 103.006 6.49366 103.006 6.29735V4.0966C103.006 3.90146 103.164 3.742 103.361 3.742H105.561C105.757 3.742 105.916 3.90146 105.916 4.0966V6.29735Z" fill="white"/>
<path fill-rule="evenodd" clip-rule="evenodd" d="M102.278 2.65891C102.278 2.85522 102.118 3.01438 101.922 3.01438H99.7216C99.5256 3.01438 99.3667 2.85522 99.3667 2.65891V0.458164C99.3667 0.262432 99.5256 0.103271 99.7216 0.103271H101.922C102.118 0.103271 102.278 0.262432 102.278 0.458164V2.65891Z" fill="white"/>
<path fill-rule="evenodd" clip-rule="evenodd" d="M98.6386 2.65891C98.6386 2.85522 98.48 3.01438 98.2837 3.01438H96.0823C95.8872 3.01438 95.728 2.85522 95.728 2.65891L98.2837 0.103271C98.48 0.103271 98.6386 0.262432 98.6386 0.458164V2.65891Z" fill="white"/>
<path fill-rule="evenodd" clip-rule="evenodd" d="M105.916 2.65891C105.916 2.85522 105.757 3.01438 105.561 3.01438H103.361C103.164 3.01438 103.006 2.85522 103.006 2.65891V0.458164C103.006 0.262432 103.164 0.103271 103.361 0.103271L105.916 2.65891Z" fill="white"/>
<path fill-rule="evenodd" clip-rule="evenodd" d="M111.738 13.5749C111.738 13.7712 111.58 13.9306 111.383 13.9306H109.182C108.987 13.9306 108.828 13.7712 108.828 13.5749V11.3744C108.828 11.1787 108.987 11.0195 109.182 11.0195H111.383C111.58 11.0195 111.738 11.1787 111.738 11.3744V13.5749Z" fill="white"/>
<path fill-rule="evenodd" clip-rule="evenodd" d="M119.016 13.5749C119.016 13.7712 118.857 13.9306 118.66 13.9306L116.105 11.3744C116.105 11.1787 116.264 11.0195 116.459 11.0195H118.66C118.857 11.0195 119.016 11.1787 119.016 11.3744V13.5749Z" fill="white"/>
<path fill-rule="evenodd" clip-rule="evenodd" d="M111.738 9.93609C111.738 10.1324 111.58 10.2916 111.383 10.2916H109.182C108.987 10.2916 108.828 10.1324 108.828 9.93609V7.73564C108.828 7.5402 108.987 7.38104 109.182 7.38104H111.383C111.58 7.38104 111.738 7.5402 111.738 7.73564V9.93609Z" fill="white"/>
<path fill-rule="evenodd" clip-rule="evenodd" d="M115.378 9.93609C115.378 10.1324 115.219 10.2916 115.022 10.2916L112.466 7.73564C112.466 7.5402 112.626 7.38104 112.821 7.38104H115.022C115.219 7.38104 115.378 7.5402 115.378 7.73564V9.93609Z" fill="white"/>
<path fill-rule="evenodd" clip-rule="evenodd" d="M119.016 9.93609C119.016 10.1324 118.857 10.2916 118.66 10.2916H116.459C116.264 10.2916 116.105 10.1324 116.105 9.93609V7.73564C116.105 7.5402 116.264 7.38104 116.459 7.38104H118.66C118.857 7.38104 119.016 7.5402 119.016 7.73564V9.93609Z" fill="white"/>
<path fill-rule="evenodd" clip-rule="evenodd" d="M111.738 6.29735C111.738 6.49308 111.58 6.65282 111.383 6.65282H109.182C108.987 6.65282 108.828 6.49308 108.828 6.29735V4.0966C108.828 3.90087 108.987 3.742 109.182 3.742H111.383C111.58 3.742 111.738 3.90087 111.738 4.0966V6.29735Z" fill="white"/>
<path fill-rule="evenodd" clip-rule="evenodd" d="M115.378 6.29735C115.378 6.49308 115.219 6.65282 115.022 6.65282H112.821C112.626 6.65282 112.466 6.49308 112.466 6.29735V4.0966C112.466 3.90087 112.626 3.742 112.821 3.742L115.378 6.29735Z" fill="white"/>
<path fill-rule="evenodd" clip-rule="evenodd" d="M119.016 6.29735C119.016 6.49308 118.857 6.65282 118.66 6.65282H116.459C116.264 6.65282 116.105 6.49308 116.105 6.29735V4.0966C116.105 3.90087 116.264 3.742 116.459 3.742H118.66C118.857 3.742 119.016 3.90087 119.016 4.0966V6.29735Z" fill="white"/>
<path fill-rule="evenodd" clip-rule="evenodd" d="M111.738 2.65891C111.738 2.85464 111.58 3.0138 111.383 3.0138H109.182C108.987 3.0138 108.828 2.85464 108.828 2.65891V0.457286C108.828 0.262139 108.987 0.103271 109.182 0.103271L111.738 2.65891Z" fill="white"/>
<path fill-rule="evenodd" clip-rule="evenodd" d="M119.016 2.65891C119.016 2.85464 118.857 3.0138 118.66 3.0138H116.459C116.264 3.0138 116.105 2.85464 116.105 2.65891V0.457286C116.105 0.262139 116.264 0.103271 116.459 0.103271H118.66C118.857 0.103271 119.016 0.262139 119.016 0.457286V2.65891Z" fill="white"/>
<path fill-rule="evenodd" clip-rule="evenodd" d="M41.1462 31.6443C41.1462 31.8406 40.9867 32 40.7904 32H38.5897C38.3942 32 38.2354 31.8406 38.2354 31.6443V29.4432C38.2354 29.2475 38.3942 29.0886 38.5897 29.0886H40.7904C40.9867 29.0886 41.1462 29.2475 41.1462 29.4432V31.6443Z" fill="white"/>
<path fill-rule="evenodd" clip-rule="evenodd" d="M41.1462 28.0052C41.1462 28.2015 40.9867 28.3612 40.7904 28.3612H38.5897C38.3942 28.3612 38.2354 28.2015 38.2354 28.0052V25.8047C38.2354 25.6093 38.3942 25.4501 38.5897 25.4501H40.7904C40.9867 25.4501 41.1462 25.6093 41.1462 25.8047V28.0052Z" fill="white"/>
<path fill-rule="evenodd" clip-rule="evenodd" d="M44.7846 28.0052C44.7846 28.2015 44.626 28.3612 44.4294 28.3612H42.2289C42.0332 28.3612 41.874 28.2015 41.874 28.0052V25.8047C41.874 25.6093 42.0332 25.4501 42.2289 25.4501H44.4294C44.626 25.4501 44.7846 25.6093 44.7846 25.8047V28.0052Z" fill="white"/>
<path fill-rule="evenodd" clip-rule="evenodd" d="M45.8671 28.3613C45.6717 28.3613 45.5122 28.2012 45.5122 28.0052V25.805C45.5122 25.6093 45.6717 25.4504 45.8671 25.4504H48.0678C48.2645 25.4504 48.4236 25.6093 48.4236 25.805L45.8671 28.3613Z" fill="white"/>
<path fill-rule="evenodd" clip-rule="evenodd" d="M41.1462 24.3667C41.1462 24.563 40.9867 24.7222 40.7904 24.7222H38.5897C38.3942 24.7222 38.2354 24.563 38.2354 24.3667V22.1657C38.2354 21.9706 38.3942 21.8111 38.5897 21.8111H40.7904C40.9867 21.8111 41.1462 21.9706 41.1462 22.1657V24.3667Z" fill="white"/>
<path fill-rule="evenodd" clip-rule="evenodd" d="M48.4233 24.3667C48.4233 24.563 48.2642 24.7222 48.0678 24.7222H45.8671C45.6717 24.7222 45.5122 24.563 45.5122 24.3667V22.1657C45.5122 21.9706 45.6717 21.8111 45.8671 21.8111H48.0678C48.2642 21.8111 48.4233 21.9706 48.4233 22.1657V24.3667Z" fill="white"/>
<path fill-rule="evenodd" clip-rule="evenodd" d="M41.1462 20.728C41.1462 20.9237 40.9867 21.0837 40.7904 21.0837H38.5897C38.3942 21.0837 38.2354 20.9237 38.2354 20.728L40.7904 18.1718C40.9867 18.1718 41.1462 18.3312 41.1462 18.5269V20.728Z" fill="white"/>
<path fill-rule="evenodd" clip-rule="evenodd" d="M44.7846 20.728C44.7846 20.9237 44.626 21.0837 44.4294 21.0837H42.2289C42.0332 21.0837 41.874 20.9237 41.874 20.728V18.5269C41.874 18.3312 42.0332 18.1718 42.2289 18.1718H44.4294C44.626 18.1718 44.7846 18.3312 44.7846 18.5269V20.728Z" fill="white"/>
<path fill-rule="evenodd" clip-rule="evenodd" d="M48.4233 20.728C48.4233 20.9237 48.2642 21.0837 48.0678 21.0837H45.8671C45.6717 21.0837 45.5122 20.9237 45.5122 20.728V18.5269C45.5122 18.3312 45.6717 18.1718 45.8671 18.1718L48.4233 20.728Z" fill="white"/>
<path fill-rule="evenodd" clip-rule="evenodd" d="M55.2688 31.6443C55.2688 31.8406 55.1091 32 54.9128 32L52.3574 29.4432C52.3574 29.2475 52.5166 29.0886 52.7126 29.0886H54.9128C55.1091 29.0886 55.2688 29.2475 55.2688 29.4432V31.6443Z" fill="white"/>
<path fill-rule="evenodd" clip-rule="evenodd" d="M58.9071 31.6443C58.9071 31.8406 58.7482 32 58.5519 32H56.3506C56.1552 32 55.9966 31.8406 55.9966 31.6443V29.4432C55.9966 29.2475 56.1552 29.0886 56.3506 29.0886H58.5519C58.7482 29.0886 58.9071 29.2475 58.9071 29.4432V31.6443Z" fill="white"/>
<path fill-rule="evenodd" clip-rule="evenodd" d="M59.9895 31.9997C59.794 31.9997 59.6343 31.8406 59.6343 31.6443V29.4435C59.6343 29.2475 59.794 29.0886 59.9895 29.0886H62.1899C62.3862 29.0886 62.5457 29.2475 62.5457 29.4435L59.9895 31.9997Z" fill="white"/>
<path fill-rule="evenodd" clip-rule="evenodd" d="M55.2688 28.0052C55.2688 28.2015 55.1091 28.3612 54.9128 28.3612H52.7126C52.5166 28.3612 52.3574 28.2015 52.3574 28.0052V25.8047C52.3574 25.6093 52.5166 25.4501 52.7126 25.4501H54.9128C55.1091 25.4501 55.2688 25.6093 55.2688 25.8047V28.0052Z" fill="white"/>
<path fill-rule="evenodd" clip-rule="evenodd" d="M62.5457 28.0052C62.5457 28.2015 62.3862 28.3612 62.1899 28.3612H59.9895C59.794 28.3612 59.6343 28.2015 59.6343 28.0052V25.8047C59.6343 25.6093 59.794 25.4501 59.9895 25.4501H62.1899C62.3862 25.4501 62.5457 25.6093 62.5457 25.8047V28.0052Z" fill="white"/>
<path fill-rule="evenodd" clip-rule="evenodd" d="M55.2688 24.3667C55.2688 24.563 55.1091 24.7222 54.9128 24.7222H52.7126C52.5166 24.7222 52.3574 24.563 52.3574 24.3667V22.1657C52.3574 21.9706 52.5166 21.8111 52.7126 21.8111H54.9128C55.1091 21.8111 55.2688 21.9706 55.2688 22.1657V24.3667Z" fill="white"/>
<path fill-rule="evenodd" clip-rule="evenodd" d="M62.5457 24.3667C62.5457 24.563 62.3862 24.7222 62.1899 24.7222H59.9895C59.794 24.7222 59.6343 24.563 59.6343 24.3667V22.1657C59.6343 21.9706 59.794 21.8111 59.9895 21.8111H62.1899C62.3862 21.8111 62.5457 21.9706 62.5457 22.1657V24.3667Z" fill="white"/>
<path fill-rule="evenodd" clip-rule="evenodd" d="M55.2688 20.728C55.2688 20.9237 55.1091 21.0837 54.9128 21.0837H52.7126C52.5166 21.0837 52.3574 20.9237 52.3574 20.728V18.5269C52.3574 18.3312 52.5166 18.1718 52.7126 18.1718L55.2688 20.728Z" fill="white"/>
<path fill-rule="evenodd" clip-rule="evenodd" d="M62.5457 20.728C62.5457 20.9237 62.3862 21.0837 62.1899 21.0837H59.9895C59.794 21.0837 59.6343 20.9237 59.6343 20.728L62.1899 18.1718C62.3862 18.1718 62.5457 18.3312 62.5457 18.5269V20.728Z" fill="white"/>
<path fill-rule="evenodd" clip-rule="evenodd" d="M70.3514 31.6443C70.3514 31.8406 70.1926 32 69.9963 32L67.4409 29.4432C67.4409 29.2475 67.5995 29.0886 67.7952 29.0886H69.9963C70.1926 29.0886 70.3514 29.2475 70.3514 29.4432V31.6443Z" fill="white"/>
<path fill-rule="evenodd" clip-rule="evenodd" d="M73.9903 31.6443C73.9903 31.8406 73.8306 32 73.6342 32H71.4338C71.2384 32 71.0786 31.8406 71.0786 31.6443V29.4432C71.0786 29.2475 71.2384 29.0886 71.4338 29.0886H73.6342C73.8306 29.0886 73.9903 29.2475 73.9903 29.4432V31.6443Z" fill="white"/>
<path fill-rule="evenodd" clip-rule="evenodd" d="M77.6283 31.6443C77.6283 31.8406 77.4697 32 77.2731 32H75.0727C74.8766 32 74.7178 31.8406 74.7178 31.6443V29.4432C74.7178 29.2475 74.8766 29.0886 75.0727 29.0886L77.6283 31.6443Z" fill="white"/>
<path fill-rule="evenodd" clip-rule="evenodd" d="M70.3514 28.0052C70.3514 28.2015 70.1926 28.3612 69.9963 28.3612H67.7952C67.5995 28.3612 67.4409 28.2015 67.4409 28.0052L69.9963 25.4501C70.1926 25.4501 70.3514 25.6093 70.3514 25.8047V28.0052Z" fill="white"/>
<path fill-rule="evenodd" clip-rule="evenodd" d="M71.4338 28.3613C71.2384 28.3613 71.0786 28.2012 71.0786 28.0052V25.805C71.0786 25.6093 71.2384 25.4504 71.4338 25.4504H73.6342C73.8306 25.4504 73.9903 25.6093 73.9903 25.805L71.4338 28.3613Z" fill="white"/>
<path fill-rule="evenodd" clip-rule="evenodd" d="M73.9903 24.3667C73.9903 24.563 73.8306 24.7222 73.6342 24.7222H71.4338C71.2384 24.7222 71.0786 24.563 71.0786 24.3667L73.6342 21.8111C73.8306 21.8111 73.9903 21.9706 73.9903 22.1657V24.3667Z" fill="white"/>
<path fill-rule="evenodd" clip-rule="evenodd" d="M75.0727 24.7222C74.8766 24.7222 74.7178 24.5631 74.7178 24.3667V22.1654C74.7178 21.9706 74.8766 21.8114 75.0727 21.8114H77.2731C77.4694 21.8114 77.6283 21.9706 77.6283 22.1654L75.0727 24.7222Z" fill="white"/>
<path fill-rule="evenodd" clip-rule="evenodd" d="M70.3514 20.728C70.3514 20.9237 70.1926 21.0837 69.9963 21.0837L67.4409 18.5269C67.4409 18.3312 67.5995 18.1718 67.7952 18.1718H69.9963C70.1926 18.1718 70.3514 18.3312 70.3514 18.5269V20.728Z" fill="white"/>
<path fill-rule="evenodd" clip-rule="evenodd" d="M73.9903 20.728C73.9903 20.9237 73.8306 21.0837 73.6342 21.0837H71.4338C71.2384 21.0837 71.0786 20.9237 71.0786 20.728V18.5269C71.0786 18.3312 71.2384 18.1718 71.4338 18.1718H73.6342C73.8306 18.1718 73.9903 18.3312 73.9903 18.5269V20.728Z" fill="white"/>
<path fill-rule="evenodd" clip-rule="evenodd" d="M77.6283 20.728C77.6283 20.9237 77.4697 21.0837 77.2731 21.0837H75.0727C74.8766 21.0837 74.7178 20.9237 74.7178 20.728V18.5269C74.7178 18.3312 74.8766 18.1718 75.0727 18.1718L77.6283 20.728Z" fill="white"/>
<path fill-rule="evenodd" clip-rule="evenodd" d="M83.5558 31.6443C83.5558 31.8406 83.3967 32 83.2004 32L80.645 29.4432C80.645 29.2475 80.8045 29.0886 80.9996 29.0886H83.2004C83.3967 29.0886 83.5558 29.2475 83.5558 29.4432V31.6443Z" fill="white"/>
<path fill-rule="evenodd" clip-rule="evenodd" d="M87.195 31.6443C87.195 31.8406 87.0355 32 86.8392 32H84.6385C84.4431 32 84.2842 31.8406 84.2842 31.6443V29.4432C84.2842 29.2475 84.4431 29.0886 84.6385 29.0886H86.8392C87.0355 29.0886 87.195 29.2475 87.195 29.4432V31.6443Z" fill="white"/>
<path fill-rule="evenodd" clip-rule="evenodd" d="M90.8338 31.6443C90.8338 31.8406 90.674 32 90.4777 32H88.2773C88.0815 32 87.9224 31.8406 87.9224 31.6443V29.4432C87.9224 29.2475 88.0815 29.0886 88.2773 29.0886L90.8338 31.6443Z" fill="white"/>
<path fill-rule="evenodd" clip-rule="evenodd" d="M83.5558 28.0052C83.5558 28.2015 83.3967 28.3612 83.2004 28.3612H80.9996C80.8045 28.3612 80.645 28.2015 80.645 28.0052L83.2004 25.4501C83.3967 25.4501 83.5558 25.6093 83.5558 25.8047V28.0052Z" fill="white"/>
<path fill-rule="evenodd" clip-rule="evenodd" d="M84.6383 28.3613C84.4429 28.3613 84.2837 28.2012 84.2837 28.0052V25.805C84.2837 25.6093 84.4429 25.4504 84.6383 25.4504H86.839C87.0354 25.4504 87.1948 25.6093 87.1948 25.805L84.6383 28.3613Z" fill="white"/>
<path fill-rule="evenodd" clip-rule="evenodd" d="M87.195 24.3667C87.195 24.563 87.0355 24.7222 86.8392 24.7222H84.6385C84.4431 24.7222 84.2842 24.563 84.2842 24.3667L86.8392 21.8111C87.0355 21.8111 87.195 21.9706 87.195 22.1657V24.3667Z" fill="white"/>
<path fill-rule="evenodd" clip-rule="evenodd" d="M88.2773 24.7222C88.0815 24.7222 87.9224 24.5631 87.9224 24.3667V22.1654C87.9224 21.9706 88.0815 21.8114 88.2773 21.8114H90.4777C90.674 21.8114 90.8335 21.9706 90.8335 22.1654L88.2773 24.7222Z" fill="white"/>
<path fill-rule="evenodd" clip-rule="evenodd" d="M83.5558 20.728C83.5558 20.9237 83.3967 21.0837 83.2004 21.0837L80.645 18.5269C80.645 18.3312 80.8045 18.1718 80.9996 18.1718H83.2004C83.3967 18.1718 83.5558 18.3312 83.5558 18.5269V20.728Z" fill="white"/>
<path fill-rule="evenodd" clip-rule="evenodd" d="M87.195 20.728C87.195 20.9237 87.0355 21.0837 86.8392 21.0837H84.6385C84.4431 21.0837 84.2842 20.9237 84.2842 20.728V18.5269C84.2842 18.3312 84.4431 18.1718 84.6385 18.1718H86.8392C87.0355 18.1718 87.195 18.3312 87.195 18.5269V20.728Z" fill="white"/>
<path fill-rule="evenodd" clip-rule="evenodd" d="M90.8338 20.728C90.8338 20.9237 90.674 21.0837 90.4777 21.0837H88.2773C88.0815 21.0837 87.9224 20.9237 87.9224 20.728V18.5269C87.9224 18.3312 88.0815 18.1718 88.2773 18.1718L90.8338 20.728Z" fill="white"/>
<path fill-rule="evenodd" clip-rule="evenodd" d="M98.6386 31.6443C98.6386 31.8406 98.48 32 98.2837 32H96.0823C95.8878 32 95.728 31.8406 95.728 31.6443V29.4432C95.728 29.2475 95.8878 29.0886 96.0823 29.0886H98.2837C98.48 29.0886 98.6386 29.2475 98.6386 29.4432V31.6443Z" fill="white"/>
<path fill-rule="evenodd" clip-rule="evenodd" d="M102.278 31.6443C102.278 31.8406 102.119 32 101.922 32H99.7215C99.5263 32 99.3672 31.8406 99.3672 31.6443V29.4432C99.3672 29.2475 99.5263 29.0886 99.7215 29.0886H101.922C102.119 29.0886 102.278 29.2475 102.278 29.4432V31.6443Z" fill="white"/>
<path fill-rule="evenodd" clip-rule="evenodd" d="M105.916 31.6443C105.916 31.8406 105.757 32 105.561 32H103.361C103.165 32 103.006 31.8406 103.006 31.6443V29.4432C103.006 29.2475 103.165 29.0886 103.361 29.0886L105.916 31.6443Z" fill="white"/>
<path fill-rule="evenodd" clip-rule="evenodd" d="M98.6386 28.0052C98.6386 28.2015 98.48 28.3612 98.2837 28.3612H96.0823C95.8878 28.3612 95.728 28.2015 95.728 28.0052V25.8047C95.728 25.6093 95.8878 25.4501 96.0823 25.4501H98.2837C98.48 25.4501 98.6386 25.6093 98.6386 25.8047V28.0052Z" fill="white"/>
<path fill-rule="evenodd" clip-rule="evenodd" d="M98.6386 24.3667C98.6386 24.563 98.48 24.7222 98.2837 24.7222H96.0823C95.8878 24.7222 95.728 24.563 95.728 24.3667V22.1657C95.728 21.9706 95.8878 21.8111 96.0823 21.8111H98.2837C98.48 21.8111 98.6386 21.9706 98.6386 22.1657V24.3667Z" fill="white"/>
<path fill-rule="evenodd" clip-rule="evenodd" d="M98.6386 20.728C98.6386 20.9237 98.48 21.0837 98.2837 21.0837H96.0823C95.8878 21.0837 95.728 20.9237 95.728 20.728L98.2837 18.1718C98.48 18.1718 98.6386 18.3312 98.6386 18.5269V20.728Z" fill="white"/>
<path fill-rule="evenodd" clip-rule="evenodd" d="M115.378 26.1856C115.378 26.3822 115.219 26.5417 115.022 26.5417H112.821C112.626 26.5417 112.466 26.3822 112.466 26.1856V23.9849C112.466 23.7895 112.626 23.63 112.821 23.63H115.022C115.219 23.63 115.378 23.7895 115.378 23.9849V26.1856Z" fill="white"/>
<path fill-rule="evenodd" clip-rule="evenodd" d="M111.738 31.6443C111.738 31.8406 111.58 32 111.383 32L108.828 29.4432C108.828 29.2475 108.987 29.0886 109.182 29.0886H111.383C111.58 29.0886 111.738 29.2475 111.738 29.4432V31.6443Z" fill="white"/>
<path fill-rule="evenodd" clip-rule="evenodd" d="M115.378 31.6443C115.378 31.8406 115.219 32 115.022 32H112.821C112.626 32 112.466 31.8406 112.466 31.6443V29.4432C112.466 29.2475 112.626 29.0886 112.821 29.0886H115.022C115.219 29.0886 115.378 29.2475 115.378 29.4432V31.6443Z" fill="white"/>
<path fill-rule="evenodd" clip-rule="evenodd" d="M116.459 31.9997C116.264 31.9997 116.105 31.8406 116.105 31.6443V29.4435C116.105 29.2475 116.264 29.0886 116.459 29.0886H118.66C118.857 29.0886 119.016 29.2475 119.016 29.4435L116.459 31.9997Z" fill="white"/>
<path fill-rule="evenodd" clip-rule="evenodd" d="M111.738 28.0052C111.738 28.2015 111.58 28.3612 111.383 28.3612H109.182C108.987 28.3612 108.828 28.2015 108.828 28.0052V25.8047C108.828 25.6093 108.987 25.4501 109.182 25.4501H111.383C111.58 25.4501 111.738 25.6093 111.738 25.8047V28.0052Z" fill="white"/>
<path fill-rule="evenodd" clip-rule="evenodd" d="M111.738 24.3667C111.738 24.563 111.58 24.7222 111.383 24.7222H109.182C108.987 24.7222 108.828 24.563 108.828 24.3667V22.1657C108.828 21.9706 108.987 21.8111 109.182 21.8111H111.383C111.58 21.8111 111.738 21.9706 111.738 22.1657V24.3667Z" fill="white"/>
<path fill-rule="evenodd" clip-rule="evenodd" d="M111.738 20.728C111.738 20.9237 111.58 21.0837 111.383 21.0837H109.182C108.987 21.0837 108.828 20.9237 108.828 20.728L111.383 18.1718C111.58 18.1718 111.738 18.3312 111.738 18.5269V20.728Z" fill="white"/>
<path fill-rule="evenodd" clip-rule="evenodd" d="M115.378 20.728C115.378 20.9237 115.219 21.0837 115.022 21.0837H112.821C112.626 21.0837 112.466 20.9237 112.466 20.728V18.5269C112.466 18.3312 112.626 18.1718 112.821 18.1718H115.022C115.219 18.1718 115.378 18.3312 115.378 18.5269V20.728Z" fill="white"/>
<path fill-rule="evenodd" clip-rule="evenodd" d="M119.016 20.728C119.016 20.9237 118.857 21.0837 118.66 21.0837H116.459C116.264 21.0837 116.105 20.9237 116.105 20.728V18.5269C116.105 18.3312 116.264 18.1718 116.459 18.1718L119.016 20.728Z" fill="white"/>
</svg>
