<?xml version="1.0" encoding="UTF-8"?>
<svg width="120px" height="23px" viewBox="0 0 120 23" version="1.1" xmlns="http://www.w3.org/2000/svg" xmlns:xlink="http://www.w3.org/1999/xlink">
    <title>Booking.com_logo</title>
    <defs>
        <polygon id="path-1" points="0.624625 21.214775 118.749875 21.214775 118.749875 1.1718625 0.624625 1.1718625 0.624625 21.214775"></polygon>
        <polygon id="path-3" points="0.62475 1.17185 118.75005 1.17185 118.75005 21.2147625 0.62475 21.2147625"></polygon>
        <polygon id="path-5" points="0.624625 21.214775 118.749875 21.214775 118.749875 1.1718625 0.624625 1.1718625 0.624625 21.214775"></polygon>
        <polygon id="path-7" points="0.62475 20.8203 118.724875 20.8203 118.724875 1.1974375 0.62475 1.1974375"></polygon>
        <polygon id="path-9" points="0.62475 1.17185 118.75005 1.17185 118.75005 21.2147625 0.62475 21.2147625"></polygon>
        <polygon id="path-11" points="0.624625 20.214775 118.749875 20.214775 118.749875 0.1718625 0.624625 0.1718625 0.624625 20.214775"></polygon>
        <polygon id="path-13" points="0.62475 0.17185 118.75005 0.17185 118.75005 20.2147625 0.62475 20.2147625"></polygon>
    </defs>
    <g id="Page-1" stroke="none" stroke-width="1" fill="none" fill-rule="evenodd">
        <g id="Booking.com_logo">
            <g id="g3360-Clipped" transform="translate(60.000250, 11.445300) scale(-1, 1) rotate(-180.000000) translate(-60.000250, -11.445300) translate(0.625250, 0.820300)">
                <mask id="mask-2" fill="white">
                    <use xlink:href="#path-1"></use>
                </mask>
                <g id="path3364"></g>
                <g id="g3360" mask="url(#mask-2)">
                    <g id="g3366-Clipped">
                        <mask id="mask-4" fill="white">
                            <use xlink:href="#path-3"></use>
                        </mask>
                        <g id="path3370"></g>
                        <g id="g3366" mask="url(#mask-4)" fill="#000000" fill-rule="nonzero">
                            <g transform="translate(11.250000, 5.000000)">
                                <path d="M35.698125,14.0207 C35.698125,15.0156 36.501125,15.8203 37.489625,15.8203 C38.4815,15.8203 39.287625,15.0156 39.287625,14.0207 C39.287625,13.0270875 38.4815,12.2215375 37.489625,12.2215375 C36.501125,12.2215375 35.698125,13.0270875 35.698125,14.0207" id="path3372"></path>
                                <path d="M64.01875,2.050825 C64.01875,3.0461375 64.821375,3.8517 65.809875,3.8517 C66.801375,3.8517 67.607375,3.0461375 67.607375,2.050825 C67.607375,1.0580625 66.801375,0.25165 65.809875,0.25165 C64.821375,0.25165 64.01875,1.0580625 64.01875,2.050825" id="path3374"></path>
                                <path d="M6.239375,2.82865 C4.6935,2.82865 3.61925,4.0563875 3.61925,5.8107875 C3.61925,7.56475 4.6935,8.7916375 6.239375,8.7916375 C7.794125,8.7916375 8.88025,7.56475 8.88025,5.8107875 C8.88025,4.028675 7.81675,2.82865 6.239375,2.82865 Z M6.239375,11.4125625 C2.968875,11.4125625 0.595375,9.0560375 0.595375,5.8107875 C0.595375,2.5655375 2.968875,0.2094375 6.239375,0.2094375 C9.522125,0.2094375 11.9055,2.5655375 11.9055,5.8107875 C11.9055,9.0560375 9.522125,11.4125625 6.239375,11.4125625" id="path3376"></path>
                                <path d="M32.22175,5.5306125 C32.094625,5.76985 31.948875,5.9724125 31.793625,6.133175 L31.69475,6.2380875 L31.79875,6.337875 C31.948875,6.4960875 32.102375,6.683725 32.250375,6.9012 L35.1365,11.1916625 L31.632875,11.1916625 L29.464375,7.83555 C29.341625,7.6555875 29.09375,7.56475 28.72275,7.56475 L28.2285,7.56475 L28.2285,13.909825 C28.2285,15.178925 27.437875,15.3516375 26.58375,15.3516375 L25.1215,15.3516375 L25.124,0.3744625 L28.2285,0.3744625 L28.2285,4.8670625 L28.519375,4.8670625 C28.87325,4.8670625 29.11425,4.826125 29.22475,4.6338 L30.937375,1.40135 C31.41575,0.52415 31.8925,0.3744625 32.789375,0.3744625 L35.1685,0.3744625 L33.396625,3.305425 L32.22175,5.5306125" id="path3378"></path>
                                <path d="M47.293125,11.43645 C45.714,11.43645 44.706375,10.73495 44.14175,10.1417625 L43.95325,9.9511375 L43.88675,10.2104125 C43.720875,10.845825 43.16175,11.1955125 42.320375,11.1955125 L40.929,11.1955125 L40.93775,0.3783 L44.021125,0.3783 L44.021125,5.363875 C44.021125,5.8513 44.0845,6.274325 44.213375,6.6602625 C44.556625,7.8283 45.514,8.5545375 46.710625,8.5545375 C47.673125,8.5545375 48.04925,8.0466375 48.04925,6.7340375 L48.04925,2.022675 C48.04925,0.9024 48.567375,0.3783 49.6885,0.3783 L51.155875,0.3783 L51.150875,7.2581375 C51.150875,9.99165 49.81775,11.43645 47.294,11.43645" id="path3380"></path>
                                <path d="M37.530625,11.1908125 L36.069125,11.1908125 L36.079125,2.82695 L36.078125,2.82695 L36.078125,0.37575 L37.638125,0.37575 C37.65775,0.37575 37.6735,0.373625 37.693125,0.373625 L38.41975,0.37575 L39.143,0.37575 L39.143,0.38 L39.148,0.38 L39.15425,9.5485625 C39.15425,10.6547625 38.625375,11.1908125 37.531625,11.1908125" id="path3382"></path>
                                <path d="M18.35075,2.82865 C16.805,2.82865 15.728625,4.0563875 15.728625,5.8107875 C15.728625,7.56475 16.805,8.7916375 18.35075,8.7916375 C19.90225,8.7916375 20.991375,7.56475 20.991375,5.8107875 C20.991375,4.028675 19.92825,2.82865 18.35075,2.82865 Z M18.35075,11.4125625 C15.077,11.4125625 12.703,9.0560375 12.703,5.8107875 C12.703,2.5655375 15.077,0.2094375 18.35075,0.2094375 C21.630125,0.2094375 24.017375,2.5655375 24.017375,5.8107875 C24.017375,9.0560375 21.630125,11.4125625 18.35075,11.4125625" id="path3384"></path>
                            </g>
                        </g>
                    </g>
                </g>
            </g>
            <g id="g3388-Clipped" transform="translate(60.000250, 11.445300) scale(-1, 1) rotate(-180.000000) translate(-60.000250, -11.445300) translate(0.625250, 0.820300)">
                <mask id="mask-6" fill="white">
                    <use xlink:href="#path-5"></use>
                </mask>
                <g id="path3392"></g>
                <g id="g3388" mask="url(#mask-6)">
                    <g id="g3394-Clipped">
                        <mask id="mask-8" fill="white">
                            <use xlink:href="#path-7"></use>
                        </mask>
                        <g id="path3398"></g>
                        <g id="g3394" mask="url(#mask-8)">
                            <g id="g3400-Clipped">
                                <mask id="mask-10" fill="white">
                                    <use xlink:href="#path-9"></use>
                                </mask>
                                <g id="path3404"></g>
                                <g id="g3400" mask="url(#mask-10)" fill="#000000" fill-rule="nonzero">
                                    <g transform="translate(62.500000, 0.000000)">
                                        <path d="M33.193875,7.82865 C31.64875,7.82865 30.571625,9.0563875 30.571625,10.8107875 C30.571625,12.56475 31.64875,13.7916375 33.193875,13.7916375 C34.745625,13.7916375 35.83525,12.56475 35.83525,10.8107875 C35.83525,9.028675 34.771625,7.82865 33.193875,7.82865 Z M33.193875,16.4125625 C29.920875,16.4125625 27.546875,14.0560375 27.546875,10.8107875 C27.546875,7.5655375 29.920875,5.2094375 33.193875,5.2094375 C36.473625,5.2094375 38.860375,7.5655375 38.860375,10.8107875 C38.860375,14.0560375 36.473625,16.4125625 33.193875,16.4125625" id="path3406"></path>
                                        <path d="M6.402375,8.304575 C4.716625,8.304575 4.116625,9.775375 4.116625,11.15365 C4.116625,11.7609 4.270125,13.7400375 6.240375,13.7400375 C7.2195,13.7400375 8.524375,13.4594375 8.524375,11.051725 C8.524375,8.7809125 7.369625,8.304575 6.402375,8.304575 L6.402375,8.304575 Z M10.12525,16.2198125 C9.540125,16.2198125 9.089875,15.98655 8.86425,15.560525 L8.779,15.395075 L8.636125,15.5191625 C8.138375,15.949875 7.246,16.46075 5.796875,16.46075 C2.913625,16.46075 0.9725,14.2952625 0.9725,11.072625 C0.9725,7.8538125 2.981,5.604325 5.854875,5.604325 C6.8365,5.604325 7.61225,5.833325 8.227125,6.299 L8.465125,6.477675 L8.465125,6.1770375 C8.465125,4.7322375 7.53075,3.9352125 5.837,3.9352125 C5.013875,3.9352125 4.264625,4.1356375 3.763625,4.3173125 C3.109375,4.51475 2.726,4.351425 2.46075,3.695125 L2.216,3.089575 L1.86975,2.205125 L2.08425,2.0908375 C3.16825,1.5155625 4.579375,1.172275 5.854875,1.172275 C8.480875,1.172275 11.547,2.516425 11.547,6.299 L11.55825,16.2198125 L10.12575,16.2198125" id="path3408"></path>
                                    </g>
                                </g>
                            </g>
                        </g>
                    </g>
                </g>
            </g>
            <g id="g3410" transform="translate(60.125250, 10.570300) scale(-1, 1) rotate(-180.000000) translate(-60.125250, -10.570300) translate(0.625250, 0.070300)">
                <g id="g3412-Clipped" transform="translate(-0.000000, 0.000000)">
                    <mask id="mask-12" fill="white">
                        <use xlink:href="#path-11"></use>
                    </mask>
                    <g id="path3416"></g>
                    <g id="g3412" mask="url(#mask-12)">
                        <g id="g3418-Clipped">
                            <mask id="mask-14" fill="white">
                                <use xlink:href="#path-13"></use>
                            </mask>
                            <g id="path3422"></g>
                            <g id="g3418" mask="url(#mask-14)" fill="#000000" fill-rule="nonzero">
                                <g transform="translate(0.000000, 4.000000)">
                                    <path d="M6.006,2.95275 L3.496,2.95525 L3.496,5.9561375 C3.496,6.5975125 3.744625,6.931 4.29425,7.00775 L6.006,7.00775 C7.22775,7.00775 8.017125,6.2371625 8.018,4.990675 C8.017125,3.7113375 7.247375,2.9535375 6.006,2.9526875 L6.006,2.95275 Z M3.496,11.0479625 L3.496,11.8377375 C3.496,12.529 3.7885,12.8577875 4.430375,12.9000125 L5.71475,12.9000125 C6.81625,12.9000125 7.476,12.240725 7.476,11.1379375 C7.476,10.2969875 7.024375,9.3157375 5.75525,9.3157375 L3.496,9.3157375 L3.496,11.0479625 L3.496,11.0479625 Z M9.211625,8.0530375 L8.757875,8.30805 L9.154,8.64665 C9.614625,9.0428125 10.386875,9.933225 10.386875,11.4718375 C10.386875,13.825825 8.560875,15.34525 5.73475,15.34525 L2.509625,15.34525 L2.509625,15.3461 L2.142375,15.3461 C1.3045,15.3153875 0.634125,14.6339375 0.62475,13.79085 L0.62475,0.42905 L2.104875,0.42905 C2.108625,0.4282 2.109875,0.42905 2.111125,0.4282 L5.7985,0.42905 C8.940125,0.42905 10.967875,2.1391 10.967875,4.78775 C10.967875,6.213775 10.3125,7.4329875 9.211,8.0530375" id="path3424"></path>
                                    <path d="M115.13425,11.401475 C113.854875,11.401475 112.618125,10.802325 111.824125,9.797625 L111.600625,9.5144625 L111.425375,9.8313125 C110.854375,10.8726875 109.871375,11.401475 108.504625,11.401475 C107.071375,11.401475 106.110125,10.6019 105.663625,10.1264125 L105.3715,9.8099875 L105.259,10.2262 C105.096,10.82535 104.562625,11.155425 103.7545,11.155425 L102.4585,11.155425 L102.446,0.3800125 L105.390625,0.3800125 L105.390625,5.136575 C105.390625,5.5532125 105.44225,5.9655875 105.546625,6.396725 C105.828125,7.5459875 106.6005,8.78225 107.899,8.6585875 C108.699875,8.581825 109.090875,7.96305 109.090875,6.767725 L109.090875,0.3800125 L112.056375,0.3800125 L112.056375,5.136575 C112.056375,5.6572625 112.105,6.0470375 112.222375,6.4380875 C112.461125,7.535325 113.2675,8.6602875 114.520375,8.6602875 C115.427,8.6602875 115.76225,8.14685 115.76225,6.767725 L115.76225,1.9553 C115.76225,0.8665875 116.247875,0.3800125 117.33575,0.3800125 L118.72175,0.3800125 L118.72425,7.2589875 C118.72425,10.007 117.514375,11.401475 115.133625,11.401475" id="path3426"></path>
                                    <path d="M88.341875,4.1212125 C88.333125,4.1105875 87.066,2.7745 85.39775,2.7745 C83.877875,2.7745 82.34225,3.7071375 82.34225,5.7890375 C82.34225,7.5865 83.532875,8.8428125 85.237,8.8428125 C85.7905,8.8428125 86.419875,8.6445125 86.518375,8.3110375 L86.532875,8.2547375 C86.75975,7.49865 87.446875,7.4581375 87.582,7.4581375 L89.19525,7.4563875 L89.19525,8.8666375 C89.19525,10.7267875 86.82925,11.401425 85.237,11.401425 C81.83225,11.401425 79.36175,9.030825 79.36175,5.7663875 C79.36175,2.503225 81.805375,0.1360375 85.17475,0.1360375 C88.098,0.1360375 89.68775,2.0575875 89.702625,2.0767875 L89.7875,2.1808375 L88.509875,4.3002625 L88.341875,4.1211625" id="path3428"></path>
                                </g>
                            </g>
                        </g>
                    </g>
                </g>
            </g>
        </g>
    </g>
</svg>