<?xml version="1.0" encoding="UTF-8"?>
<svg width="191px" height="23px" viewBox="0 0 191 23" version="1.1" xmlns="http://www.w3.org/2000/svg" xmlns:xlink="http://www.w3.org/1999/xlink">
    <title>Shape</title>
    <g id="Page-1" stroke="none" stroke-width="1" fill="none" fill-rule="evenodd">
        <g id="Designlab" fill="#000000">
            <path d="M7.484,19.636 C12.788,19.636 16.174,15.998 16.174,11.298 L16.174,11.238 C16.174,6.538 12.788,2.84 7.484,2.84 L2.571,2.84 L2.571,19.636 L7.484,19.636 Z M0.204,0.627 L7.484,0.627 C14.077,0.627 18.631,5.205 18.631,11.177 L18.631,11.237 C18.631,17.211 14.077,21.849 7.484,21.849 L0.204,21.849 L0.204,0.627 Z M25.11,0.627 L40.27,0.627 L40.27,2.809 L27.477,2.809 L27.477,10.055 L38.924,10.055 L38.924,12.238 L27.476,12.238 L27.476,19.666 L40.421,19.666 L40.421,21.849 L25.109,21.849 L25.109,0.627 L25.11,0.627 Z M45.303,18.757 L46.771,16.998 C48.958,19 51.055,20 53.963,20 C56.779,20 58.636,18.484 58.636,16.392 L58.636,16.332 C58.636,14.361 57.588,13.239 53.182,12.299 C48.359,11.237 46.142,9.661 46.142,6.174 L46.142,6.114 C46.142,2.779 49.048,0.324 53.034,0.324 C56.09,0.324 58.277,1.203 60.404,2.931 L59.026,4.78 C57.078,3.173 55.131,2.476 52.974,2.476 C50.246,2.476 48.509,3.992 48.509,5.902 L48.509,5.962 C48.509,7.963 49.589,9.085 54.202,10.085 C58.876,11.117 61.033,12.845 61.033,16.089 L61.033,16.149 C61.033,19.788 58.037,22.152 53.873,22.152 C50.547,22.152 47.819,21.03 45.303,18.757 M67.495,21.85 L69.862,21.85 L69.862,0.626 L67.495,0.626 L67.495,21.848 L67.495,21.85 Z M76.49,11.299 L76.49,11.239 C76.49,5.416 80.714,0.263 87.006,0.263 C90.542,0.263 92.729,1.293 94.826,3.082 L93.3,4.9 C91.682,3.475 89.884,2.475 86.918,2.475 C82.273,2.475 78.947,6.447 78.947,11.177 L78.947,11.237 C78.947,16.3 82.153,20.059 87.247,20.059 C89.644,20.059 91.861,19.119 93.3,17.937 L93.3,12.662 L86.918,12.662 L86.918,10.51 L95.577,10.51 L95.577,18.968 C93.629,20.726 90.693,22.213 87.157,22.213 C80.565,22.213 76.49,17.361 76.49,11.298 M102.615,0.627 L104.831,0.627 L118.046,17.635 L118.046,0.627 L120.353,0.627 L120.353,21.849 L118.465,21.849 L104.922,4.446 L104.922,21.85 L102.615,21.85 L102.615,0.627 Z M127.723,0.627 L132.339,0.627 L132.339,17.605 L142.796,17.605 L142.796,21.849 L127.723,21.849 L127.723,0.627 L127.723,0.627 Z M159.843,12.966 L157.057,6.084 L154.271,12.966 L159.843,12.966 Z M154.99,0.474 L159.245,0.474 L168.234,21.85 L163.409,21.85 L161.491,17.089 L152.623,17.089 L150.704,21.849 L146,21.849 L154.99,0.474 Z M182.783,17.756 C184.822,17.756 186.05,17.029 186.05,15.452 L186.05,15.392 C186.05,13.967 185.002,13.088 182.635,13.088 L177.3,13.088 L177.3,17.756 L182.783,17.756 L182.783,17.756 Z M181.556,9.206 C183.592,9.206 184.882,8.539 184.882,6.963 L184.882,6.903 C184.882,5.508 183.802,4.719 181.854,4.719 L177.3,4.719 L177.3,9.206 L181.556,9.206 L181.556,9.206 Z M172.806,0.626 L182.545,0.626 C184.94,0.626 186.828,1.294 188.028,2.506 C188.986,3.476 189.466,4.659 189.466,6.114 L189.466,6.174 C189.466,8.571 188.207,9.904 186.709,10.754 C189.136,11.694 190.634,13.118 190.634,15.968 L190.634,16.028 C190.634,19.908 187.518,21.849 182.783,21.849 L172.806,21.849 L172.806,0.627 L172.806,0.626 Z" id="Shape"></path>
        </g>
    </g>
</svg>