<?xml version="1.0" encoding="UTF-8"?>
<svg width="112px" height="26px" viewBox="0 0 112 26" version="1.1" xmlns="http://www.w3.org/2000/svg" xmlns:xlink="http://www.w3.org/1999/xlink">
    <title>logo-vonq-white</title>
    <g id="Page-1" stroke="none" stroke-width="1" fill="none" fill-rule="evenodd">
        <g id="logo-vonq-white" fill="#000000" fill-rule="nonzero">
            <polygon id="Path" points="0 0.48 6.81 0.48 11.89 16.82 17.01 0.48 23.7 0.48 14.76 25.04 8.92 25.04"></polygon>
            <polygon id="Path" points="53.91 1.44 58.79 1.44 70.07 15.97 70.07 1.44 75.29 1.44 75.29 25.04 70.78 25.04 59.12 10.04 59.12 25.04 53.91 25.04"></polygon>
            <path d="M25.56,12.82 L25.56,12.75 C25.56,8.26631678 27.9520164,4.1232226 31.8349999,1.88138096 C35.7179835,-0.360460673 40.5020165,-0.360460673 44.3850001,1.88138096 C48.2679836,4.1232226 50.66,8.26631678 50.66,12.75 L50.66,12.82 C50.66,19.7511736 45.0411736,25.37 38.11,25.37 C31.1788264,25.37 25.56,19.7511736 25.56,12.82 L25.56,12.82 Z M45.24,12.82 L45.24,12.75 C45.24,8.52 42.24,5 38.08,5 C33.92,5 31,8.44 31,12.67 L31,12.74 C31,16.97 34,20.49 38.16,20.49 C42.32,20.49 45.24,17.05 45.24,12.82 L45.24,12.82 Z" id="Shape"></path>
            <path d="M101.24,26 L98.64,23.6 C96.5601171,24.9626049 94.1264778,25.6857434 91.64,25.68 C88.2806905,25.7677926 85.0313004,24.4795433 82.6447369,22.113749 C80.2581735,19.7479547 78.9415725,16.5099485 79,13.15 L79,13.08 C79.0000002,6.11292803 84.647928,0.465000376 91.615,0.465000376 C98.582072,0.465000376 104.23,6.11292803 104.23,13.08 L104.23,13.15 C104.228049,15.6382604 103.498056,18.0715709 102.13,20.15 L104.57,22.28 L101.24,26 Z M94.74,20.09 L90.87,16.71 L94.19,12.89 L98.11,16.52 C98.537199,15.4619878 98.7545671,14.3309943 98.7500705,13.19 L98.7500705,13.12 C98.7500705,8.95 95.75,5.47 91.56,5.47 C87.37,5.47 84.45,8.87 84.45,13 L84.45,13.07 C84.45,17.24 87.45,20.72 91.64,20.72 C92.7110411,20.7487074 93.7745678,20.5332663 94.75,20.09 L94.74,20.09 Z" id="Shape"></path>
            <polygon id="Path" points="106.89 20.22 112 20.22 112 25.52 106.89 25.52"></polygon>
        </g>
    </g>
</svg>