<?xml version="1.0" encoding="UTF-8"?>
<svg width="142px" height="253px" viewBox="0 0 142 253" version="1.1" xmlns="http://www.w3.org/2000/svg" xmlns:xlink="http://www.w3.org/1999/xlink">
    <title>Shape</title>
    <g id="Page-1" stroke="none" stroke-width="1" fill="none" fill-rule="evenodd">
        <g id="nipo-logo" fill="#000000" fill-rule="nonzero">
            <path d="M35.39,225.72 L35.39,242.96 L23,242.96 L23,228.94 C23,225.52 21.17,224.03 18.24,224.03 C14.97,224.03 12.49,225.96 12.49,230.47 L12.49,242.96 L0.11,242.96 L0.11,215.86 L12.1,215.86 L12.1,219.23 L12.2,219.23 C13.49,217.5 17.45,215.12 23.4,215.12 C30.24,215.12 35.39,218.19 35.39,225.72 Z M41.33,242.96 L53.72,242.96 L53.72,215.86 L41.33,215.86 L41.33,242.96 Z M53.71,206.35 L41.33,206.35 L41.33,213.19 L53.72,213.19 L53.72,206.35 L53.71,206.35 Z M98.3,229.58 C98.3,239.64 90.92,244.05 82.89,244.05 C77.84,244.05 74.27,242.81 72.14,240.23 L72.04,240.23 L72.04,252.67 L59.66,252.67 L59.66,215.85 L71.65,215.85 L71.65,219.07 L71.75,219.07 C73.98,216.49 77.4,215.11 82.9,215.11 C90.92,215.12 98.3,219.52 98.3,229.58 Z M85.62,229.58 C85.62,226.01 83.64,223.44 78.83,223.44 C74.07,223.44 72.04,225.72 72.04,229.58 C72.04,233.4 74.07,235.72 78.88,235.72 C83.34,235.72 85.62,233.05 85.62,229.58 Z M141.41,229.38 C141.41,239.39 135.32,244.05 121.34,244.05 C107.37,244.05 101.27,239.39 101.27,229.38 C101.27,219.42 107.36,214.76 121.34,214.76 C135.31,214.77 141.41,219.43 141.41,229.38 Z M128.42,229.38 C128.42,225.12 126.34,222.79 121.34,222.79 C116.38,222.79 114.26,225.12 114.26,229.38 C114.26,233.74 116.39,236.02 121.34,236.02 C126.34,236.02 128.42,233.74 128.42,229.38 Z M141.62,70.35 C141.46,31.47 109.89,0 70.97,0 C32.06,0 0.49,31.47 0.33,70.35 L0.33,70.35 L0.33,196.97 L59.17,196.97 L59.17,70.17 L59.18,70.17 C59.45,63.89 64.63,58.88 70.98,58.88 C77.33,58.88 82.51,63.89 82.78,70.17 L82.79,70.17 L82.79,196.97 L141.63,196.97 L141.62,70.35 L141.62,70.35 Z" id="Shape"></path>
        </g>
    </g>
</svg>